<mxfile host="app.diagrams.net" agent="Mozilla/5.0 (Windows NT 10.0; Win64; x64; rv:130.0) Gecko/20100101 Firefox/130.0" version="24.7.15">
  <diagram name="Page-1" id="aG-kVXKsN0VmphncpH24">
    <mxGraphModel dx="1034" dy="395" grid="0" gridSize="10" guides="1" tooltips="1" connect="1" arrows="1" fold="1" page="1" pageScale="1" pageWidth="1169" pageHeight="827" math="0" shadow="0">
      <root>
        <mxCell id="0" />
        <mxCell id="1" parent="0" />
        <mxCell id="chWlJP7nHv1LBfzG1qX2-146" value="" style="group" parent="1" vertex="1" connectable="0">
          <mxGeometry x="137" y="35" width="780" height="1536" as="geometry" />
        </mxCell>
        <mxCell id="chWlJP7nHv1LBfzG1qX2-39" value="" style="group" parent="chWlJP7nHv1LBfzG1qX2-146" vertex="1" connectable="0">
          <mxGeometry width="677" height="248" as="geometry" />
        </mxCell>
        <mxCell id="chWlJP7nHv1LBfzG1qX2-1" value="" style="rounded=1;whiteSpace=wrap;html=1;dashed=1;strokeWidth=2;fillStyle=auto;" parent="chWlJP7nHv1LBfzG1qX2-39" vertex="1">
          <mxGeometry x="3" y="45" width="638" height="203" as="geometry" />
        </mxCell>
        <mxCell id="chWlJP7nHv1LBfzG1qX2-8" value="" style="rounded=1;whiteSpace=wrap;html=1;fillColor=#dae8fc;strokeColor=#6c8ebf;" parent="chWlJP7nHv1LBfzG1qX2-39" vertex="1">
          <mxGeometry x="20" y="17" width="180" height="40" as="geometry" />
        </mxCell>
        <mxCell id="chWlJP7nHv1LBfzG1qX2-11" value="&lt;font color=&quot;#ff0d35&quot; face=&quot;Comic Sans MS&quot;&gt;&lt;b&gt;PHASE 1: Initial Access&lt;/b&gt;&lt;/font&gt;&lt;font color=&quot;#ff0d35&quot; face=&quot;Comic Sans MS&quot;&gt;&lt;br&gt;&lt;/font&gt;" style="text;html=1;align=center;verticalAlign=middle;whiteSpace=wrap;rounded=0;" parent="chWlJP7nHv1LBfzG1qX2-39" vertex="1">
          <mxGeometry x="18" y="18" width="188" height="30" as="geometry" />
        </mxCell>
        <mxCell id="chWlJP7nHv1LBfzG1qX2-29" value="" style="group" parent="chWlJP7nHv1LBfzG1qX2-39" vertex="1" connectable="0">
          <mxGeometry y="86" width="134" height="142" as="geometry" />
        </mxCell>
        <mxCell id="chWlJP7nHv1LBfzG1qX2-16" value="" style="shape=image;verticalLabelPosition=bottom;labelBackgroundColor=default;verticalAlign=top;aspect=fixed;imageAspect=0;image=https://encrypted-tbn0.gstatic.com/images?q=tbn:ANd9GcTXLASWuxlGyHZMJMwj2rcEOtl6cVgWQvK43A&amp;s;" parent="chWlJP7nHv1LBfzG1qX2-29" vertex="1">
          <mxGeometry x="19" width="112" height="110.51" as="geometry" />
        </mxCell>
        <mxCell id="chWlJP7nHv1LBfzG1qX2-17" value="&lt;div&gt;&lt;b&gt;&lt;font color=&quot;#ff0d35&quot; face=&quot;Comic Sans MS&quot;&gt;Threat Actor&lt;br&gt;&lt;/font&gt;&lt;/b&gt;&lt;/div&gt;&lt;div&gt;&lt;b&gt;&lt;font color=&quot;#ff0d35&quot; face=&quot;Comic Sans MS&quot;&gt;Kali Linux&lt;br&gt;&lt;/font&gt;&lt;/b&gt;&lt;/div&gt;" style="text;html=1;align=center;verticalAlign=middle;whiteSpace=wrap;rounded=0;" parent="chWlJP7nHv1LBfzG1qX2-29" vertex="1">
          <mxGeometry y="112" width="134" height="30" as="geometry" />
        </mxCell>
        <mxCell id="chWlJP7nHv1LBfzG1qX2-34" style="rounded=0;orthogonalLoop=1;jettySize=auto;html=1;entryX=0;entryY=0.5;entryDx=0;entryDy=0;exitX=0.982;exitY=0.588;exitDx=0;exitDy=0;exitPerimeter=0;dashed=1;shape=link;strokeWidth=2;flowAnimation=1;" parent="chWlJP7nHv1LBfzG1qX2-39" source="chWlJP7nHv1LBfzG1qX2-16" target="chWlJP7nHv1LBfzG1qX2-6" edge="1">
          <mxGeometry relative="1" as="geometry">
            <mxPoint x="473" y="146" as="targetPoint" />
          </mxGeometry>
        </mxCell>
        <mxCell id="chWlJP7nHv1LBfzG1qX2-19" value="" style="outlineConnect=0;dashed=0;verticalLabelPosition=bottom;verticalAlign=top;align=center;html=1;shape=mxgraph.aws3.internet_gateway;fillColor=#F58534;gradientColor=none;" parent="chWlJP7nHv1LBfzG1qX2-39" vertex="1">
          <mxGeometry x="295" y="107" width="82" height="83" as="geometry" />
        </mxCell>
        <mxCell id="chWlJP7nHv1LBfzG1qX2-36" value="&lt;font color=&quot;#ff0d35&quot; face=&quot;Comic Sans MS&quot;&gt;&lt;b&gt;Brute-force&lt;/b&gt;&lt;/font&gt;" style="text;html=1;align=center;verticalAlign=middle;whiteSpace=wrap;rounded=0;" parent="chWlJP7nHv1LBfzG1qX2-39" vertex="1">
          <mxGeometry x="147" y="121" width="127" height="30" as="geometry" />
        </mxCell>
        <mxCell id="chWlJP7nHv1LBfzG1qX2-37" value="&lt;font color=&quot;#00cc00&quot; face=&quot;Comic Sans MS&quot;&gt;&lt;b&gt;Successful Authentication&lt;br&gt;&lt;/b&gt;&lt;/font&gt;" style="text;html=1;align=center;verticalAlign=middle;whiteSpace=wrap;rounded=0;" parent="chWlJP7nHv1LBfzG1qX2-39" vertex="1">
          <mxGeometry x="137" y="150" width="155" height="30" as="geometry" />
        </mxCell>
        <mxCell id="chWlJP7nHv1LBfzG1qX2-38" value="" style="group" parent="chWlJP7nHv1LBfzG1qX2-39" vertex="1" connectable="0">
          <mxGeometry x="508" width="169" height="248" as="geometry" />
        </mxCell>
        <mxCell id="chWlJP7nHv1LBfzG1qX2-2" value="" style="rounded=1;whiteSpace=wrap;html=1;fillColor=#dae8fc;strokeColor=#6c8ebf;" parent="chWlJP7nHv1LBfzG1qX2-38" vertex="1">
          <mxGeometry x="4" y="16" width="162" height="36" as="geometry" />
        </mxCell>
        <mxCell id="chWlJP7nHv1LBfzG1qX2-9" value="&lt;h2&gt;&lt;font color=&quot;#4a68ff&quot; style=&quot;font-size: 14px;&quot;&gt;&lt;font face=&quot;Verdana&quot;&gt;MYDFIR SERVERS&lt;/font&gt;&lt;/font&gt;&lt;font color=&quot;#4a68ff&quot;&gt;&lt;br&gt;&lt;/font&gt;&lt;/h2&gt;" style="text;html=1;align=center;verticalAlign=middle;resizable=0;points=[];autosize=1;strokeColor=none;fillColor=none;" parent="chWlJP7nHv1LBfzG1qX2-38" vertex="1">
          <mxGeometry x="6" width="157" height="63" as="geometry" />
        </mxCell>
        <mxCell id="chWlJP7nHv1LBfzG1qX2-6" value="" style="rounded=1;whiteSpace=wrap;html=1;fillColor=#f5f5f5;strokeColor=#666666;fontColor=#333333;dashed=1;strokeWidth=2;" parent="chWlJP7nHv1LBfzG1qX2-38" vertex="1">
          <mxGeometry y="54" width="169" height="194" as="geometry" />
        </mxCell>
        <mxCell id="chWlJP7nHv1LBfzG1qX2-5" value="" style="shape=image;verticalLabelPosition=bottom;labelBackgroundColor=default;verticalAlign=top;aspect=fixed;imageAspect=0;image=https://encrypted-tbn0.gstatic.com/images?q=tbn:ANd9GcSJFWqoaxIG1AYhwJ6dHbA58pj1tS2CDSMu0A&amp;s;" parent="chWlJP7nHv1LBfzG1qX2-38" vertex="1">
          <mxGeometry x="50" y="57" width="68" height="68" as="geometry" />
        </mxCell>
        <mxCell id="chWlJP7nHv1LBfzG1qX2-7" value="" style="shape=image;verticalLabelPosition=bottom;labelBackgroundColor=default;verticalAlign=top;aspect=fixed;imageAspect=0;image=https://encrypted-tbn0.gstatic.com/images?q=tbn:ANd9GcQoqbaSfJ294Qp1Lf5YGMAsD8BXkgZZ7Fm2aQ&amp;s;" parent="chWlJP7nHv1LBfzG1qX2-38" vertex="1">
          <mxGeometry x="38" y="142" width="86" height="86" as="geometry" />
        </mxCell>
        <mxCell id="chWlJP7nHv1LBfzG1qX2-12" value="&lt;font color=&quot;#474eff&quot; face=&quot;Comic Sans MS&quot;&gt;&lt;b&gt;MYDFIR-WIN2022&lt;/b&gt;&lt;/font&gt;" style="text;html=1;align=center;verticalAlign=middle;whiteSpace=wrap;rounded=0;" parent="chWlJP7nHv1LBfzG1qX2-38" vertex="1">
          <mxGeometry x="2" y="117" width="161" height="30" as="geometry" />
        </mxCell>
        <mxCell id="chWlJP7nHv1LBfzG1qX2-14" value="&lt;font color=&quot;#474eff&quot; face=&quot;Comic Sans MS&quot;&gt;&lt;b&gt;MYDFIR-SSH_SERVER&lt;/b&gt;&lt;/font&gt;" style="text;html=1;align=center;verticalAlign=middle;whiteSpace=wrap;rounded=0;" parent="chWlJP7nHv1LBfzG1qX2-38" vertex="1">
          <mxGeometry x="3" y="217" width="161" height="30" as="geometry" />
        </mxCell>
        <mxCell id="chWlJP7nHv1LBfzG1qX2-40" value="" style="group" parent="chWlJP7nHv1LBfzG1qX2-146" vertex="1" connectable="0">
          <mxGeometry x="10" y="268" width="677" height="248" as="geometry" />
        </mxCell>
        <mxCell id="chWlJP7nHv1LBfzG1qX2-41" value="" style="rounded=1;whiteSpace=wrap;html=1;dashed=1;strokeWidth=2;fillStyle=auto;" parent="chWlJP7nHv1LBfzG1qX2-40" vertex="1">
          <mxGeometry x="3" y="45" width="638" height="203" as="geometry" />
        </mxCell>
        <mxCell id="chWlJP7nHv1LBfzG1qX2-42" value="" style="rounded=1;whiteSpace=wrap;html=1;fillColor=#dae8fc;strokeColor=#6c8ebf;" parent="chWlJP7nHv1LBfzG1qX2-40" vertex="1">
          <mxGeometry x="20" y="17" width="180" height="40" as="geometry" />
        </mxCell>
        <mxCell id="chWlJP7nHv1LBfzG1qX2-43" value="&lt;font color=&quot;#ff0d35&quot; face=&quot;Comic Sans MS&quot;&gt;&lt;b&gt;PHASE 2: Discovery &lt;br&gt;&lt;/b&gt;&lt;/font&gt;" style="text;html=1;align=center;verticalAlign=middle;whiteSpace=wrap;rounded=0;" parent="chWlJP7nHv1LBfzG1qX2-40" vertex="1">
          <mxGeometry x="18" y="18" width="188" height="30" as="geometry" />
        </mxCell>
        <mxCell id="chWlJP7nHv1LBfzG1qX2-44" value="" style="group" parent="chWlJP7nHv1LBfzG1qX2-40" vertex="1" connectable="0">
          <mxGeometry y="86" width="134" height="142" as="geometry" />
        </mxCell>
        <mxCell id="chWlJP7nHv1LBfzG1qX2-45" value="" style="shape=image;verticalLabelPosition=bottom;labelBackgroundColor=default;verticalAlign=top;aspect=fixed;imageAspect=0;image=https://encrypted-tbn0.gstatic.com/images?q=tbn:ANd9GcTXLASWuxlGyHZMJMwj2rcEOtl6cVgWQvK43A&amp;s;" parent="chWlJP7nHv1LBfzG1qX2-44" vertex="1">
          <mxGeometry x="19" width="112" height="110.51" as="geometry" />
        </mxCell>
        <mxCell id="chWlJP7nHv1LBfzG1qX2-46" value="&lt;div&gt;&lt;b&gt;&lt;font color=&quot;#ff0d35&quot; face=&quot;Comic Sans MS&quot;&gt;Threat Actor&lt;br&gt;&lt;/font&gt;&lt;/b&gt;&lt;/div&gt;&lt;div&gt;&lt;b&gt;&lt;font color=&quot;#ff0d35&quot; face=&quot;Comic Sans MS&quot;&gt;Kali Linux&lt;br&gt;&lt;/font&gt;&lt;/b&gt;&lt;/div&gt;" style="text;html=1;align=center;verticalAlign=middle;whiteSpace=wrap;rounded=0;" parent="chWlJP7nHv1LBfzG1qX2-44" vertex="1">
          <mxGeometry y="112" width="134" height="30" as="geometry" />
        </mxCell>
        <mxCell id="chWlJP7nHv1LBfzG1qX2-47" style="rounded=0;orthogonalLoop=1;jettySize=auto;html=1;entryX=0;entryY=0.5;entryDx=0;entryDy=0;exitX=0.982;exitY=0.588;exitDx=0;exitDy=0;exitPerimeter=0;dashed=1;shape=link;strokeWidth=2;flowAnimation=1;strokeColor=#FF0000;" parent="chWlJP7nHv1LBfzG1qX2-40" source="chWlJP7nHv1LBfzG1qX2-45" target="chWlJP7nHv1LBfzG1qX2-54" edge="1">
          <mxGeometry relative="1" as="geometry">
            <mxPoint x="473" y="146" as="targetPoint" />
          </mxGeometry>
        </mxCell>
        <mxCell id="chWlJP7nHv1LBfzG1qX2-48" value="" style="outlineConnect=0;dashed=0;verticalLabelPosition=bottom;verticalAlign=top;align=center;html=1;shape=mxgraph.aws3.internet_gateway;fillColor=#F58534;gradientColor=none;" parent="chWlJP7nHv1LBfzG1qX2-40" vertex="1">
          <mxGeometry x="295" y="107" width="82" height="83" as="geometry" />
        </mxCell>
        <mxCell id="chWlJP7nHv1LBfzG1qX2-49" value="&lt;font color=&quot;#ff0d35&quot; face=&quot;Comic Sans MS&quot;&gt;&lt;b&gt;RDP, SSH&lt;br&gt;&lt;/b&gt;&lt;/font&gt;" style="text;html=1;align=center;verticalAlign=middle;whiteSpace=wrap;rounded=0;" parent="chWlJP7nHv1LBfzG1qX2-40" vertex="1">
          <mxGeometry x="147" y="121" width="127" height="30" as="geometry" />
        </mxCell>
        <mxCell id="chWlJP7nHv1LBfzG1qX2-50" value="&lt;div&gt;&lt;font color=&quot;#ff3399&quot; style=&quot;font-size: 12px;&quot; face=&quot;Georgia&quot;&gt;&lt;b&gt;Whoami&lt;/b&gt;&lt;/font&gt;&lt;/div&gt;&lt;div&gt;&lt;font color=&quot;#ff3399&quot; size=&quot;3&quot; face=&quot;BL5nlVBJkwQT-jW3DKM8&quot;&gt;&lt;b&gt;Netstat&lt;/b&gt;&lt;/font&gt;&lt;/div&gt;&lt;div&gt;&lt;font color=&quot;#ff3399&quot; size=&quot;3&quot; face=&quot;BL5nlVBJkwQT-jW3DKM8&quot;&gt;&lt;b&gt;ifconfig&lt;br&gt;&lt;/b&gt;&lt;/font&gt;&lt;/div&gt;" style="text;html=1;align=center;verticalAlign=middle;whiteSpace=wrap;rounded=0;" parent="chWlJP7nHv1LBfzG1qX2-40" vertex="1">
          <mxGeometry x="131" y="168" width="155" height="30" as="geometry" />
        </mxCell>
        <mxCell id="chWlJP7nHv1LBfzG1qX2-51" value="" style="group" parent="chWlJP7nHv1LBfzG1qX2-40" vertex="1" connectable="0">
          <mxGeometry x="508" width="169" height="248" as="geometry" />
        </mxCell>
        <mxCell id="chWlJP7nHv1LBfzG1qX2-52" value="" style="rounded=1;whiteSpace=wrap;html=1;fillColor=#dae8fc;strokeColor=#6c8ebf;" parent="chWlJP7nHv1LBfzG1qX2-51" vertex="1">
          <mxGeometry x="4" y="16" width="162" height="36" as="geometry" />
        </mxCell>
        <mxCell id="chWlJP7nHv1LBfzG1qX2-53" value="&lt;h2&gt;&lt;font color=&quot;#4a68ff&quot; style=&quot;font-size: 14px;&quot;&gt;&lt;font face=&quot;Verdana&quot;&gt;MYDFIR SERVERS&lt;/font&gt;&lt;/font&gt;&lt;font color=&quot;#4a68ff&quot;&gt;&lt;br&gt;&lt;/font&gt;&lt;/h2&gt;" style="text;html=1;align=center;verticalAlign=middle;resizable=0;points=[];autosize=1;strokeColor=none;fillColor=none;" parent="chWlJP7nHv1LBfzG1qX2-51" vertex="1">
          <mxGeometry x="6" width="157" height="63" as="geometry" />
        </mxCell>
        <mxCell id="chWlJP7nHv1LBfzG1qX2-54" value="" style="rounded=1;whiteSpace=wrap;html=1;fillColor=#f5f5f5;strokeColor=#666666;fontColor=#333333;dashed=1;strokeWidth=2;" parent="chWlJP7nHv1LBfzG1qX2-51" vertex="1">
          <mxGeometry y="54" width="169" height="194" as="geometry" />
        </mxCell>
        <mxCell id="chWlJP7nHv1LBfzG1qX2-55" value="" style="shape=image;verticalLabelPosition=bottom;labelBackgroundColor=default;verticalAlign=top;aspect=fixed;imageAspect=0;image=https://encrypted-tbn0.gstatic.com/images?q=tbn:ANd9GcSJFWqoaxIG1AYhwJ6dHbA58pj1tS2CDSMu0A&amp;s;" parent="chWlJP7nHv1LBfzG1qX2-51" vertex="1">
          <mxGeometry x="50" y="57" width="68" height="68" as="geometry" />
        </mxCell>
        <mxCell id="chWlJP7nHv1LBfzG1qX2-56" value="" style="shape=image;verticalLabelPosition=bottom;labelBackgroundColor=default;verticalAlign=top;aspect=fixed;imageAspect=0;image=https://encrypted-tbn0.gstatic.com/images?q=tbn:ANd9GcQoqbaSfJ294Qp1Lf5YGMAsD8BXkgZZ7Fm2aQ&amp;s;" parent="chWlJP7nHv1LBfzG1qX2-51" vertex="1">
          <mxGeometry x="38" y="142" width="86" height="86" as="geometry" />
        </mxCell>
        <mxCell id="chWlJP7nHv1LBfzG1qX2-57" value="&lt;font color=&quot;#474eff&quot; face=&quot;Comic Sans MS&quot;&gt;&lt;b&gt;MYDFIR-WIN2022&lt;/b&gt;&lt;/font&gt;" style="text;html=1;align=center;verticalAlign=middle;whiteSpace=wrap;rounded=0;" parent="chWlJP7nHv1LBfzG1qX2-51" vertex="1">
          <mxGeometry x="2" y="117" width="161" height="30" as="geometry" />
        </mxCell>
        <mxCell id="chWlJP7nHv1LBfzG1qX2-58" value="&lt;font color=&quot;#474eff&quot; face=&quot;Comic Sans MS&quot;&gt;&lt;b&gt;MYDFIR-SSH_SERVER&lt;/b&gt;&lt;/font&gt;" style="text;html=1;align=center;verticalAlign=middle;whiteSpace=wrap;rounded=0;" parent="chWlJP7nHv1LBfzG1qX2-51" vertex="1">
          <mxGeometry x="3" y="217" width="161" height="30" as="geometry" />
        </mxCell>
        <mxCell id="chWlJP7nHv1LBfzG1qX2-59" value="" style="group" parent="chWlJP7nHv1LBfzG1qX2-146" vertex="1" connectable="0">
          <mxGeometry x="13" y="549" width="677" height="248" as="geometry" />
        </mxCell>
        <mxCell id="chWlJP7nHv1LBfzG1qX2-79" value="" style="rounded=1;whiteSpace=wrap;html=1;" parent="chWlJP7nHv1LBfzG1qX2-59" vertex="1">
          <mxGeometry x="350" y="86" width="120" height="15" as="geometry" />
        </mxCell>
        <mxCell id="chWlJP7nHv1LBfzG1qX2-78" value="" style="rounded=1;whiteSpace=wrap;html=1;" parent="chWlJP7nHv1LBfzG1qX2-59" vertex="1">
          <mxGeometry x="377" y="135" width="128" height="23" as="geometry" />
        </mxCell>
        <mxCell id="chWlJP7nHv1LBfzG1qX2-60" value="" style="rounded=1;whiteSpace=wrap;html=1;dashed=1;strokeWidth=2;fillStyle=auto;" parent="chWlJP7nHv1LBfzG1qX2-59" vertex="1">
          <mxGeometry x="3" y="45" width="638" height="203" as="geometry" />
        </mxCell>
        <mxCell id="chWlJP7nHv1LBfzG1qX2-61" value="" style="rounded=1;whiteSpace=wrap;html=1;fillColor=#dae8fc;strokeColor=#6c8ebf;" parent="chWlJP7nHv1LBfzG1qX2-59" vertex="1">
          <mxGeometry x="20" y="17" width="180" height="40" as="geometry" />
        </mxCell>
        <mxCell id="chWlJP7nHv1LBfzG1qX2-62" value="&lt;font color=&quot;#ff0d35&quot; face=&quot;Comic Sans MS&quot;&gt;&lt;b&gt;PHASE 3: Defence Evasion&amp;nbsp; &lt;br&gt;&lt;/b&gt;&lt;/font&gt;" style="text;html=1;align=center;verticalAlign=middle;whiteSpace=wrap;rounded=0;" parent="chWlJP7nHv1LBfzG1qX2-59" vertex="1">
          <mxGeometry x="18" y="18" width="188" height="30" as="geometry" />
        </mxCell>
        <mxCell id="chWlJP7nHv1LBfzG1qX2-63" value="" style="group" parent="chWlJP7nHv1LBfzG1qX2-59" vertex="1" connectable="0">
          <mxGeometry y="86" width="134" height="142" as="geometry" />
        </mxCell>
        <mxCell id="chWlJP7nHv1LBfzG1qX2-64" value="" style="shape=image;verticalLabelPosition=bottom;labelBackgroundColor=default;verticalAlign=top;aspect=fixed;imageAspect=0;image=https://encrypted-tbn0.gstatic.com/images?q=tbn:ANd9GcTXLASWuxlGyHZMJMwj2rcEOtl6cVgWQvK43A&amp;s;" parent="chWlJP7nHv1LBfzG1qX2-63" vertex="1">
          <mxGeometry x="19" width="112" height="110.51" as="geometry" />
        </mxCell>
        <mxCell id="chWlJP7nHv1LBfzG1qX2-65" value="&lt;div&gt;&lt;b&gt;&lt;font color=&quot;#ff0d35&quot; face=&quot;Comic Sans MS&quot;&gt;Threat Actor&lt;br&gt;&lt;/font&gt;&lt;/b&gt;&lt;/div&gt;&lt;div&gt;&lt;b&gt;&lt;font color=&quot;#ff0d35&quot; face=&quot;Comic Sans MS&quot;&gt;Kali Linux&lt;br&gt;&lt;/font&gt;&lt;/b&gt;&lt;/div&gt;" style="text;html=1;align=center;verticalAlign=middle;whiteSpace=wrap;rounded=0;" parent="chWlJP7nHv1LBfzG1qX2-63" vertex="1">
          <mxGeometry y="112" width="134" height="30" as="geometry" />
        </mxCell>
        <mxCell id="chWlJP7nHv1LBfzG1qX2-66" style="rounded=0;orthogonalLoop=1;jettySize=auto;html=1;entryX=0;entryY=0.5;entryDx=0;entryDy=0;exitX=0.982;exitY=0.588;exitDx=0;exitDy=0;exitPerimeter=0;dashed=1;shape=link;strokeWidth=2;flowAnimation=1;strokeColor=#FF3333;" parent="chWlJP7nHv1LBfzG1qX2-59" source="chWlJP7nHv1LBfzG1qX2-82" target="chWlJP7nHv1LBfzG1qX2-73" edge="1">
          <mxGeometry relative="1" as="geometry">
            <mxPoint x="473" y="146" as="targetPoint" />
          </mxGeometry>
        </mxCell>
        <mxCell id="chWlJP7nHv1LBfzG1qX2-68" value="&lt;font color=&quot;#ff0d35&quot; face=&quot;Comic Sans MS&quot;&gt;&lt;b&gt;RDP, SSH&lt;br&gt;&lt;/b&gt;&lt;/font&gt;" style="text;html=1;align=center;verticalAlign=middle;whiteSpace=wrap;rounded=0;" parent="chWlJP7nHv1LBfzG1qX2-59" vertex="1">
          <mxGeometry x="147" y="121" width="127" height="30" as="geometry" />
        </mxCell>
        <mxCell id="chWlJP7nHv1LBfzG1qX2-70" value="" style="group" parent="chWlJP7nHv1LBfzG1qX2-59" vertex="1" connectable="0">
          <mxGeometry x="513" width="169" height="248" as="geometry" />
        </mxCell>
        <mxCell id="chWlJP7nHv1LBfzG1qX2-71" value="" style="rounded=1;whiteSpace=wrap;html=1;fillColor=#dae8fc;strokeColor=#6c8ebf;" parent="chWlJP7nHv1LBfzG1qX2-70" vertex="1">
          <mxGeometry x="4" y="16" width="162" height="36" as="geometry" />
        </mxCell>
        <mxCell id="chWlJP7nHv1LBfzG1qX2-72" value="&lt;h2&gt;&lt;font color=&quot;#4a68ff&quot; style=&quot;font-size: 14px;&quot;&gt;&lt;font face=&quot;Verdana&quot;&gt;MYDFIR SERVERS&lt;/font&gt;&lt;/font&gt;&lt;font color=&quot;#4a68ff&quot;&gt;&lt;br&gt;&lt;/font&gt;&lt;/h2&gt;" style="text;html=1;align=center;verticalAlign=middle;resizable=0;points=[];autosize=1;strokeColor=none;fillColor=none;" parent="chWlJP7nHv1LBfzG1qX2-70" vertex="1">
          <mxGeometry x="6" width="157" height="63" as="geometry" />
        </mxCell>
        <mxCell id="chWlJP7nHv1LBfzG1qX2-73" value="" style="rounded=1;whiteSpace=wrap;html=1;fillColor=#f5f5f5;strokeColor=#666666;fontColor=#333333;dashed=1;strokeWidth=2;" parent="chWlJP7nHv1LBfzG1qX2-70" vertex="1">
          <mxGeometry y="54" width="169" height="194" as="geometry" />
        </mxCell>
        <mxCell id="chWlJP7nHv1LBfzG1qX2-74" value="" style="shape=image;verticalLabelPosition=bottom;labelBackgroundColor=default;verticalAlign=top;aspect=fixed;imageAspect=0;image=https://encrypted-tbn0.gstatic.com/images?q=tbn:ANd9GcSJFWqoaxIG1AYhwJ6dHbA58pj1tS2CDSMu0A&amp;s;" parent="chWlJP7nHv1LBfzG1qX2-70" vertex="1">
          <mxGeometry x="50" y="57" width="68" height="68" as="geometry" />
        </mxCell>
        <mxCell id="chWlJP7nHv1LBfzG1qX2-75" value="" style="shape=image;verticalLabelPosition=bottom;labelBackgroundColor=default;verticalAlign=top;aspect=fixed;imageAspect=0;image=https://encrypted-tbn0.gstatic.com/images?q=tbn:ANd9GcQoqbaSfJ294Qp1Lf5YGMAsD8BXkgZZ7Fm2aQ&amp;s;" parent="chWlJP7nHv1LBfzG1qX2-70" vertex="1">
          <mxGeometry x="38" y="142" width="86" height="86" as="geometry" />
        </mxCell>
        <mxCell id="chWlJP7nHv1LBfzG1qX2-76" value="&lt;font color=&quot;#474eff&quot; face=&quot;Comic Sans MS&quot;&gt;&lt;b&gt;MYDFIR-WIN2022&lt;/b&gt;&lt;/font&gt;" style="text;html=1;align=center;verticalAlign=middle;whiteSpace=wrap;rounded=0;" parent="chWlJP7nHv1LBfzG1qX2-70" vertex="1">
          <mxGeometry x="2" y="117" width="161" height="30" as="geometry" />
        </mxCell>
        <mxCell id="chWlJP7nHv1LBfzG1qX2-77" value="&lt;font color=&quot;#474eff&quot; face=&quot;Comic Sans MS&quot;&gt;&lt;b&gt;MYDFIR-SSH_SERVER&lt;/b&gt;&lt;/font&gt;" style="text;html=1;align=center;verticalAlign=middle;whiteSpace=wrap;rounded=0;" parent="chWlJP7nHv1LBfzG1qX2-70" vertex="1">
          <mxGeometry x="3" y="217" width="161" height="30" as="geometry" />
        </mxCell>
        <mxCell id="chWlJP7nHv1LBfzG1qX2-82" value="&lt;font color=&quot;#ff0000&quot; face=&quot;Comic Sans MS&quot;&gt;&lt;b&gt;Disable Defender&lt;/b&gt;&lt;/font&gt;&lt;font color=&quot;#ff0000&quot; face=&quot;Comic Sans MS&quot;&gt;&lt;b&gt;&lt;br&gt;&lt;/b&gt;&lt;/font&gt;" style="rounded=1;whiteSpace=wrap;html=1;fillColor=#ffe6cc;strokeColor=#d79b00;" parent="chWlJP7nHv1LBfzG1qX2-59" vertex="1">
          <mxGeometry x="391" y="135" width="104" height="27" as="geometry" />
        </mxCell>
        <mxCell id="chWlJP7nHv1LBfzG1qX2-83" value="" style="rounded=0;orthogonalLoop=1;jettySize=auto;html=1;entryX=0;entryY=0.5;entryDx=0;entryDy=0;exitX=0.982;exitY=0.588;exitDx=0;exitDy=0;exitPerimeter=0;dashed=1;shape=link;strokeWidth=2;flowAnimation=1;strokeColor=#FF3333;" parent="chWlJP7nHv1LBfzG1qX2-59" source="chWlJP7nHv1LBfzG1qX2-64" target="chWlJP7nHv1LBfzG1qX2-82" edge="1">
          <mxGeometry relative="1" as="geometry">
            <mxPoint x="279" y="735" as="sourcePoint" />
            <mxPoint x="658" y="735" as="targetPoint" />
          </mxGeometry>
        </mxCell>
        <mxCell id="chWlJP7nHv1LBfzG1qX2-67" value="" style="outlineConnect=0;dashed=0;verticalLabelPosition=bottom;verticalAlign=top;align=center;html=1;shape=mxgraph.aws3.internet_gateway;fillColor=#F58534;gradientColor=none;" parent="chWlJP7nHv1LBfzG1qX2-59" vertex="1">
          <mxGeometry x="272" y="107" width="82" height="83" as="geometry" />
        </mxCell>
        <mxCell id="chWlJP7nHv1LBfzG1qX2-84" value="" style="group" parent="chWlJP7nHv1LBfzG1qX2-146" vertex="1" connectable="0">
          <mxGeometry x="35" y="815" width="716" height="271" as="geometry" />
        </mxCell>
        <mxCell id="chWlJP7nHv1LBfzG1qX2-87" value="" style="rounded=1;whiteSpace=wrap;html=1;dashed=1;strokeWidth=2;fillStyle=auto;" parent="chWlJP7nHv1LBfzG1qX2-84" vertex="1">
          <mxGeometry x="3" y="45" width="638" height="203" as="geometry" />
        </mxCell>
        <mxCell id="chWlJP7nHv1LBfzG1qX2-106" value="" style="shape=image;verticalLabelPosition=bottom;labelBackgroundColor=default;verticalAlign=top;aspect=fixed;imageAspect=0;image=data:image/png,iVBORw0KGgoAAAANSUhEUgAAAOEAAADhCAMAAAAJbSJIAAABm1BMVEX///8YJ0QYJkC0ACWqACOtACQYKEKvACMYKUe3ACanACKyASXKACjAACfEACgYKUWhACLdACybACDQACrCASiZACLUACmIAB7jAC2OAB7k3+CBAB6mqa94ABvx6OkAFTx/AACSAADLzdGfAAAAADF0ABvr7O1rb3oHHDpZX2unAACYAADav8UBGz0RIkGyAAB3e4YAACE/SFoAACoeKT7BAB2/AACKAADaACIAADQAEjQAAB3VAACsAAyhABq6vMBxAADjAB7hJz/JABTGABzIAAC0ABqkAA7iz9KMABbi4+XqAADx4uXnABjhgYvWABDZlJ3TSlnKJTy+ABDsxMnCi5LFaXHLeIKuGzLXsbaNkZlLU2T+5eniYXDhP1Lqb4LpqbD50tbwlZ7iMErVP1TeAzbRXmzoXGndk53vqLDYo6rNTV3ZcoDQjJXIKkTqsba+WGXCOU7Oqa6+SViuMkXchJS7XGLFQlvHIUGnNkeqIDfCb3rCl521cXqlJjmoUF6zRV27foakXGSSKjiRRVLJsratho1lAACYZ24JBKEhAAAZbUlEQVR4nO2di1/ayNrHo7ayXuuVbVkbi7ipAkpXC1KPpKtgiB4qKCigrdWtZS2CgOju8VKt3dPd989+ZzKTZBISBA3q6Yff7ulCMknmm+cyz0xSDkXVVVddddVVV1111VVXXXXVVVddddVV1/+40nfdgVpr6e1d96DGCr276x7UWv/O3XUPaqxN8133oMZ6/+/kXXehtoq8+c6jMPNmNnTXfaipPr15E7vrPtRU79+8eX/Xfail+M03s++Yu+5F7cRszc4+/o6DkF+am33snfteAenk+8ezjx/Pfty+657URtvv5t4AvsezH75LC24vbc5CvMePv8uR3vIbsh7UzNJd98Z4RX7vFvEez859dwM9v/th1ivyPX7z+1UhaAltb78N0bfSNyMUej8rmQ8YcEZz1YKJ5T7MYX30dneDf81zuf8JSDoj8XU/fuzt1opA+mize1awcjcp7wfvzv33Z/4jYT/vzKaWVX4Lz3q7NbQV4j/OpG69y9WJD5N8v/MaTZIzs1p4QLPezaN34d577ar0R6/Mt6LpcbszOnyCn3o/dns/3mdP7fbiyAL20zbFcrgMoIh5f8ufjOh/sx907PD7rALF61WihcNwy8y9XVGNYAf0zuqVMO9lC4a9H1NAcwALb9nJx3NbmU1vt/e+EtLYRb29el62KwF6P36yoG0M/2nOC3OrNy58D4XDmdvpb/VaRi7nfacHGJJ80nuk3BHZAZbD48SHTeE/tPNT8p7FoxP5qHdHrwGzgwm93aVd/y3s/QBPAmwo7EzPhHvnvGu16+419E7ov/eD1hgoKCb66EetJukZL/hzi3IKOSrnN5vjFJPSPdkdaBuZcFZ/MEO3oNuskyr3Zj6BSEVjTMxv9m5uzlHUkWbTuxFyQe/vug1yM91mqLBer2HBlhSy8K7X7H8PXPaIukdZlUcmNOu71TuvAOhd0WuwO8NQ9HwqHVn2m8O/wS1nNejotbWETKi/WEF3mpEJ9Z+upcDRqZmw3+v33r81AQsyYVj/CfbbMCL06p+Efg8nX96ZD0f3KcFgbaE8GdaPmyXspHtXnSr09l5OLmCegf1fjhAL92+3s/JD+2VE6P/tLrp3c9EzZuyD4bktKrSdzWZ2dpZ7wagttmBWUIMZA67G0LFsJLWMlMqmt2/hcciu1yzJu9IbhpOEj15z2Cutc9N9BhHSseWVvnm/PyDK7/f31b4ymDMrFd5896HXPLMlR5QxhLm1/U5/oLddrYB/J3tThrJaCiv4vJu7mV6zt518UGEAYSy+o0UnMi7X8A2BFJjJkoS9sTmv2RtQRAcg7IUKX/f5THbF7+/V44Ny+/drNReJhb07v30gCD9Ap91UXW4ZEQauN/lL7vvLwIl27KzNC2XOsNnLZ1SBaA5vqZot+QVC8+Y1LkGvVMDX3t7Z7qlJLfTR7D1SeinwU3NYnd22EWHvfPUraWv+QHkySe1+45db6X2veY7kQxy9XrU3ggER7QlUeYXVDg0Duv1+D5LfTRB2dkbjRpGJSvkVYLJKHlfEsRHNVb33FZ9X87nBCOjZzMVCvKDcjidKMnoMtmIqXMqGNa8qL+lOvCPQWWle5+PtgRK8lXxOmcSYdMFPMPoNjcWcVxewN7CsahyZx9m+d/6okjrLmZpX8QUCK6eao02uL0A4qoEDI+yzUiRwQD3X3ZM67G9fc5Y/dSwT8IjNcRaJtsf1B7w1D2rV19fRGTBsXAx1llgwo0BUWZHuk0fswHwqqTtL4iMYj4gvd2DJUq4zkWifKLdRoRjyqwH9W5kA/ogw+pQ+tU1mjYB/vpApnU/SW6mVeb8iPwrDwP5VxXXEgwE7OjwGPdtJBVSA5n1mx6yorMwBZUzEOpWRFZjvLGSOkgdOmqZDBwe5pUwBzBrUeIBvp4LY2vJ0iGoxZBJd9KsA282x2Lwqtff6I4qDnKXVCZz+eOY9HjAjAlMidwlep9uzX9nEIR8QCaOGlG97IqFY78/nqM7S0thfULrXkfomlBApFfCkYpXOcBOSEfuMMGIoA2v93vbAez9014A/TmW0ykf18AeG6ErpQKG5clRFTDk9xhqR+c88NFngiM60rKzs5UD9oQEIzahyssiKpzTWSuUOBParfDsj7saE7oIRhBQd2oGhBk5GM8CRIroTgEBKVYUkMx1+d3nrBdx7R6FqF2AsLtGIboPGxGWQGs3iw6ZCAKUNkC9KEEvyNx0pRDWyJo69qL+wdK0uFt0tggxyUzhgtLcXREcKBObnlnIHB8mjlJ+Y72CT7JYcTCd3QdUccEvpsw+6pjvq6Tu69pNDWjSi26DHrMCGAbGAiM1noKHot2/B2JYuBlSJxJPS6nXoYHepUFjBM6GVQiGzdMDfJA8WOTAagn86Oo15qLMDCMUl3nQIFiQrfZ3tfR37WyAq3cpIC3TqZ0Ua6+Y92o0iN21xGbPAyBOE4Fu+E8xHodweJl8sFjwKK7ZHi7V/HuF0YULDAnHeL02q03LmcGcYPpYLbReiyvzvqfnzMotI6Nsy6IzZvXb8KeWR3LGzvdDnjkbde/wnBWJfX7Tmr62JhJxxb3Q40QPBAp6DRjuXQE5ExnSvOAvtCE1U9MpnTzdUDQiRdv2IKbDFMGnCcElPn0Id0Rq/LVMrwghy0UAmlnIH+HhAtJo7fuQWpmyS3J6avn3AS4QGXwYBut/tetyd7r1Qi+SXnekoqPRFumh0PvXlsNqMyvOVV29Jn5hpjH2MUXALsbayLCwleHIpyXDuPwuS+aLLFc+DkOitfNEl6jBfSZ/XOIGvqcl3cD0UbfE42Do7hFBzFyJuCWslL34u5JJbxcNUYa94WMmMyJk9dEU5rkUSF/Xl01fcIhrCCfIY+qKKYLI+Od780DVFz1zGH5bzUTCAIHmuWnWhT10urqNFLc7nypctWU84DGhsoknKCySY6shNfNsXt8qbQO0fL8PozLu4EjoRkitz5KoPAzb5DH0M1dZJ4vUVVtx7CuAW8rP4xe3W62kors8nMHbo9X7VBdjaoEyckc8SY8glwcQHWanlaC/aoRaatSkt7TqJlNbaoWJ5PihXQTPIIq42UVzRQEAGeaG7kFk9KgiM7sieWwGnzQtzB3e4FjkI4ZlF6CAdP+TK8+Eo49Lqe8PwRRnQZOhYEREM5l6K59dyFEoxUX5fmKUp2fTiygeGAq6FA39Gffp4TUr5OKWrxhIuTgJs85XOt68vpg356Apw0ui+k4dQ3FLarWm066hJU21NvmKWF4ItxB+cnviaTMB0JhMyYZuRr1XhgQENFFxLyAm+t3hiK9g/hX+NJGsjXNHlKq6t5V0uH4fRICNQk5F/XTUUFU2EEDsYiByNxN1yX/eNYGtrSzzkSECUMoFMEhmW3dCRApKQ7hhN08BqXMopjddcqkLCpqaydjMlspcPfCYJTvgX/M+klm/VSMCkSw41ZMkVKgXSRR8jYx1dmf11zaY0WFucitvlfFKCJohrM9SCdIuARoaay3kJiFx0HHNxR9myhJWwSYF3SYXydm0yqIcPH/qMXQtiCqWd96XhBMaXk6YxfF6b8MpMQrKhLGmyx0Fq8/m04YCCrrix7ymm4XSzI6rIltxRCGz1RZyIiyswKzdgE9GkGPsDXHbVzqnRBHH2jNEv3xYhxX76z1JCbpfHhBnGdQ0ygUor1uzwKU9ozcWRaFAmnylv/GIlJHTn4oQX/gd4KVxI4LIM2hpF7loFWflEYrKjeuyPVrsviOEeBH1237GRZQxJ2LGXIAD385zvYBVs4PYoZLYouAEV05nKkIkuaTrEF7eks3akaDZ9xZsd11ZBXbHwiZboW2jTpgCDRrdoLstVYDidoU0r2uwKX+TLvqBxU1keKhOIa+uUA3PrBEBrm2cQErbh9TzyoTrYhIBL1JJJqVCC5GtxpS32Jl8yJNisDxP60lmuFAj/U84lNdhEI97ez4VJa5NCxeV7SxW4po63wkoCl2eQ4biUitBEfNS2mwhnetikwffgoen81ggjPiLCuDyV4Jq4AlWEZFyW5zAQ71ISVmgzU1PqUN74gJSxlXU5Fckc4orFAAr3PiQAcbtODlmLy/wpztqq8kjfFgJ8oCH7LQEyCTJFcqFTYDVX6MwHaXxbBz7RZg+vEWsP7LlDVqAxmUoJg6e3Q4hSCna+JhN93ATma2CsgFguHvBeBw37ZDCTFgC5xPn5Q3uQJflaW1vttRr/lEoKVuJ8woTGtE+dgPR4Qq0J39xM4jp0D7BTBvf4Vvjf/b0cw8SckWICQ7YisYlb+V20uA9OslNJ5yEHJjY5Kgtq/oTlUMAoJNUTgCuMppAvRRcRERu0PyheJhk6WQy2EgoWbwPxGyjxfcIzLGA9uHx3Agj5E0SY9l0PTrBghj4Nyj7JBm35NM1cKhBthr+xriU+xaESCuDYc8ConJLwqmDTkS/DxH0PSJxW1mZKMkmbwoqGrlXoKgvqC2A84Jm+GEUd+EwnFkx44LsGm2BALs3ksblYYL4gyyKjrTFpVsTrArLdzl80dcYsibM8mJD6QFyE7KYm/lwwHZcMVouGPTK1zSNAEIKHf0TS6bVju0AW/INZDQpsSGzVT1qvKcYHZ9xtwhPBeNDOr3GQxRc7JJ30wUNOY1gj0ZDN7MUYk20VAIOJbAjctBD848IGzRYs8l/YLgKRvaUfskkWuYc+dC3eHsycCoSmfDyI2QQE7jTBaqIR8Rbk8jk6mbchvjhN8ZdFm81WXKWp1S5ovGCe7yKM2NUavK2/EX1in8efsvbjVUTmO1IUI+wafaJCVGQS4JKJI5pxHgahRwaDcYY6OAExCE0VDCYpp/DRlnPauu7CilT6VHxal7VfBpHVElllAkmGzk2laAjPfpKPxJzO03OBj23NhuizQznmWoOfKZ4Vvh6sBpWIt1PckOJXT0Qb5RMKRJq3qdkEPSymnE7n6mGXjYUUrK34lqLyNjLiumxZKiRsCDpXFVbsCt7Bb0tfioN1ayvpj2yR0kE8OQFWwhZjbWvCgmBRAdhlA97IOwSiLHJYGfHzrRM6pXJE6Y+2U5BrNQCJ5MEGT3HuiCucMZik85fUN4HMdpo8Vux0XNz6D/WcmDSCDcgeolgVnCKmgrZj6eG1IqM40kx/0JGkvglWZLucnx0QtgeLtd5OeSOKp5PazggcleGDBBlLuBvA+0I+uCYJbcmQlXXAlWAeHcEeZz87eggFTz7XdMlNIRo4ox6iLU2dE1Cp1ROHTZDDfqx6Z+FUbmfLgaMcqNCm+xEZ25/+ck4yso6L26pwQK5Ig9SuDjjEdEGFbLJrJmiKcfLb27xGxs9LhI4cbxMBgVatQQHJ2nOS6FEyWi/ObmHsAJVjq+2SYlaBZRShBnvcGgQNZPezlUn0xyKh4+iboyeYl/cwq10Oa49K/ScAEQSkdcrQt9k0lLRDqiAch/lkUJAwyHWxeRhCjk/A/6REyOr/kleoHycSR/zM0eNQNeTPrFYHSwL29xx+OQW+29/D1nZmHLIhs7XajtMwLPhQLvl1jQWjN5sPATTgphTVIw8CuqHzDScSRxZ8cmisO/HJr61WKwvhkHp6zvOfAeJUbcPxUIoe1mazSqk/nWdZWwh4MOsD35wOiVD3L919RhZi13irJqAg/uy0v8dqlSgXDk+n+qdq+gsgF8RIDBOOLMuJ4z3oUpcDpoLPYjP2WOdEB8iE1vgZAIzoNEIndqZP+llgTIjIrsE7U0M3PSOqKfZEmdboc/gbWUnHIbx+QmwY1K5G6H5kweMLa4+1LKAgC++8PLZCRjZSUzflyUH6sGSv8L5n6OSchqCwDTSS9l+/+MoiwGP2CgsScvYvQDNmp9ja1anHxCCtuxDGJD9HeIwAIEpuBNSl4KNsPg8AKzcIfQzyzMLaxUJXrX7Fbk0eBdir6kRerLm0VpO+odEu8YXt6apqanQBrLjwZWGqRlVqUsqQrOnqt8rEistamvlolDUSYAzXCVM90db+J0/6z5/01+TX0Hir5KHlX8RGWsVViTBAKsRcsBCwq6vfelztrOhg6gnUQk2M2CNVWRWtRdNi3ZVQ3+9LKxrA+zXMe5V4RPhkoQZGFEsxtrXCh5dWXG05VEtJ/BQuUdhrjNwi4ZTxf0PuAAdh8LzC4t5pFesQZclJIx/tX7Bep4KWbFji+zeVGFWOtUrd41ystHoUZQ39IwKcut5y9teFJ9iIxqxrMDwaeOgzPCs9ryDCGZ5fpOivrFQwnzNgG7a881wYtRfYz9UChuAZvmETAkIj6hpmtT944rRYQskTsYis4KgzUCo/+atfAmQdW5Br6jJksfAXC4JlF06qHbKdfz2Z+spfyIAXRqSaY0dXDwtLEzx4Wyt5rewCVo898pTHCrpyOQW+TvWA6FlAIViSXq/S2RTwzoWpBQnQkEeLacVKEFCwgn7xYn7BmvoC57o9yo3Wqv8fIP+S2LAMicK/rCp9qeAg55TQdEoUPIYXPpFbq+0fvfBMqan7+AuvyeTtP3+4VV0A0329607UUmcwC05d3nU3aihhpF747113o4YS5gTPvmcb0hfAiD/exwxomOiFJ1PfdzK1LBhTSt5f1Qlro9evXw8BWRYXF7VWkReHXgsCTUALefMAqSG4SbHltXwGWpYTEH4jvsuNhoTLgOPgpRbRhWVZFpUthSvAPil6zIAOWizoAIgDBX+bbHBwcBjq1fDYkNYNGB4eHERtXv0yKm8ffTUoaVLowMAksWVdBiRLyR9//JH49qtszxeTw+Kxw5MDwoV/GRb16pcX8oU3pMuALhPkzMCj4VevXomHYA0/Wqd+EDWm/QB5fUxsMD5Kbt+Qtg8O4F5KW4YHCBNCLG09IzxWPli80a/lLfL9ghceV7cUAB8NNvygoYYxmXBwgNIQMyGdcFKxY1HaMSx2aVC8MnkrKiSkhkvuo4TySOmMIvkYYVnqhXhxQo8EyYTjE1qEA8NSg19Ue8RzioSStYdJbyhHSI6N4w2oTyNSv5+Poy42vFQmiBG0+dEgGVWNDY90JBNqG3F0XI9Qsi6+68wj7CZjz8lm5Qi/Ee0acBc1CFW3fgS3HCYJX2r6KBRBOL5RCjg0KN0bNSG1Poz9ANnsxRhuOK38of1nP8ppBpPh7wrCH8T7IxOOaTvX2LjSdwQ1i5YYH3w1LOvV4Bglm7NhujSZTozL+9WE1PMR5O6C0RbFSB9U5AWK/vXZ5TcLGBr4n0TAJPhm+fb3M6WXjldM+IMWIb56ww8DDKmBUUSoF4mLchSWeCkcSfCeV0NyMhxXRQ2ziqPSIhFiMMvfZLw2VG7DBiSVlyKNP6fUIl12WG1EOYf/oM6lUOKIAfx7SKJ9XdJMh1Ap3MMGgnAcd7oaQkWCLSVU736tSMElNqQWH+HzDg5I3Xmp93wdE/70000JR6okbCClMuKLMXJnKSEwougcuDcN07ovngHCnwTdKaEy0VMKQC1CZrxBKWXdcyNCZqMqwvHKCBtGSB97PXgVIbWubNIwrBeFkPCnsoTKLg49HxPvXmVxWCkhOeozk/L2RzqEKiNq10WVERI2ZAYGh8d0T3ozG5KJYkBlHy1C6vm04vBFrTZVEY4/HwDTh3K37WY2bCDG6wlVkGkSUo+IVmOlg1HVhA3jg6rrGmtD4nSvh1W7tAlJS4+Ue4PX8rQywhIZTCjnihF1ntQmpKSBomF6XbvFPSNsmEbbh9Qm1CNclIzYXPZlOonw10oIx6enxXLC4DiUjKiOQl1CSiQsMxbKhE+fPq2AcGRwYn1If8RvBmponlSO+M2CRvQJG18qOipF4SPxVhpA+FSQDmEj6mJzY8N0wygctJ6PoA0l80PcsFrC6QHR+sKRckEhftIlnMYnvxlho0TYvI7GHOMI0a7podERuaeLw/iC0+svxDPqEjZXSPi0EsKR52I0V0coHl5K2Cy1XxS7OrlIrY/hGzrCPL8dwuaSLooXblQTNl6XECQX9HFsnfmlWTQhdUuEDTck1PdSgnBAMuK6ePKRxQoIGysj/LkyLy0hLMmluKVq9tQoSGO0IAgZ0dSNIhRsLxH+6wrCkRvGIRJJiLaoCacxjGo8RBs1qg6CkFoXjdgsm7AiQtS3m3lpQ8WEjVqE+PDp0iVRkhAasZGQ0GfxQo36hETraxNWbkOxP0rCRl1C8cxC3L4Qe4uvNmQk4VVxWC3hpKYNS71UQWhRAo6SFzKI8Oefa0o4cgUh9UI8XDKhgYRYNSVsfKlaEX2tIhwiCPGZjSJkfn6KETWnIEYRNjY/J/RiYlJFSI3KiNiljSKkzn5FJvxbc69hhI0jpMYb1YQDk+KGhpfKC92YkPrvPwKh9k7jCFVSE4LSTWnCKwkXRUKtZ1cKWSDhPzqvKoh3tpSwtGrDHXytsbEM4QheRXotXQqFCyOONMp7JonZkE4+qb9YisT/8/M/37R3DQ2LZ5FWCqTzjijOuz5d0hIe/4su4Tiw2fj4+MjIGB4rm0fGCRMuTkwDZ4aNGkcmtdYKNyanRU3+S/NBOaG///k/7R3MhMQzjU32fBpH0sgI+dhvcRJvHh+ZJGvQ9Uky+gTBT9PT1MYE0MbGxujoBDrP0MbES6BGhDMwOjoK9k6gVjrdW4TveEjviZSTDiA1OiFcFGpiQrhPAxvwuvjCxCrlxoa8eYL0qkWYO4newgajz19c2aW66qqrrrrqqquuuuqqq6666qqrrrpuR/8PpGlHy7768GwAAAAASUVORK5CYII=;" parent="chWlJP7nHv1LBfzG1qX2-84" vertex="1">
          <mxGeometry x="412" y="113" width="58" height="58" as="geometry" />
        </mxCell>
        <mxCell id="chWlJP7nHv1LBfzG1qX2-88" value="" style="rounded=1;whiteSpace=wrap;html=1;fillColor=#dae8fc;strokeColor=#6c8ebf;" parent="chWlJP7nHv1LBfzG1qX2-84" vertex="1">
          <mxGeometry x="20" y="17" width="180" height="40" as="geometry" />
        </mxCell>
        <mxCell id="chWlJP7nHv1LBfzG1qX2-89" value="&lt;font color=&quot;#ff0d35&quot; face=&quot;Comic Sans MS&quot;&gt;&lt;b&gt;PHASE 4: Execution&lt;br&gt;&lt;/b&gt;&lt;/font&gt;" style="text;html=1;align=center;verticalAlign=middle;whiteSpace=wrap;rounded=0;" parent="chWlJP7nHv1LBfzG1qX2-84" vertex="1">
          <mxGeometry x="18" y="18" width="188" height="30" as="geometry" />
        </mxCell>
        <mxCell id="chWlJP7nHv1LBfzG1qX2-90" value="" style="group" parent="chWlJP7nHv1LBfzG1qX2-84" vertex="1" connectable="0">
          <mxGeometry y="86" width="134" height="142" as="geometry" />
        </mxCell>
        <mxCell id="chWlJP7nHv1LBfzG1qX2-91" value="" style="shape=image;verticalLabelPosition=bottom;labelBackgroundColor=default;verticalAlign=top;aspect=fixed;imageAspect=0;image=https://encrypted-tbn0.gstatic.com/images?q=tbn:ANd9GcTXLASWuxlGyHZMJMwj2rcEOtl6cVgWQvK43A&amp;s;" parent="chWlJP7nHv1LBfzG1qX2-90" vertex="1">
          <mxGeometry x="19" width="112" height="110.51" as="geometry" />
        </mxCell>
        <mxCell id="chWlJP7nHv1LBfzG1qX2-92" value="&lt;div&gt;&lt;b&gt;&lt;font color=&quot;#ff0d35&quot; face=&quot;Comic Sans MS&quot;&gt;Threat Actor&lt;br&gt;&lt;/font&gt;&lt;/b&gt;&lt;/div&gt;&lt;div&gt;&lt;b&gt;&lt;font color=&quot;#ff0d35&quot; face=&quot;Comic Sans MS&quot;&gt;Kali Linux&lt;br&gt;&lt;/font&gt;&lt;/b&gt;&lt;/div&gt;" style="text;html=1;align=center;verticalAlign=middle;whiteSpace=wrap;rounded=0;" parent="chWlJP7nHv1LBfzG1qX2-90" vertex="1">
          <mxGeometry y="112" width="134" height="30" as="geometry" />
        </mxCell>
        <mxCell id="chWlJP7nHv1LBfzG1qX2-93" style="rounded=0;orthogonalLoop=1;jettySize=auto;html=1;entryX=0;entryY=0.5;entryDx=0;entryDy=0;exitX=0.982;exitY=0.588;exitDx=0;exitDy=0;exitPerimeter=0;dashed=1;shape=link;strokeWidth=2;flowAnimation=1;strokeColor=#FF3333;" parent="chWlJP7nHv1LBfzG1qX2-84" target="chWlJP7nHv1LBfzG1qX2-98" edge="1">
          <mxGeometry relative="1" as="geometry">
            <mxPoint x="493.12799999999993" y="151.87599999999998" as="sourcePoint" />
            <mxPoint x="473" y="146" as="targetPoint" />
          </mxGeometry>
        </mxCell>
        <mxCell id="chWlJP7nHv1LBfzG1qX2-94" value="&lt;font color=&quot;#ff0d35&quot; face=&quot;Comic Sans MS&quot;&gt;&lt;b&gt;Execute Mythic C2 Agent&lt;br&gt;&lt;/b&gt;&lt;/font&gt;" style="text;html=1;align=center;verticalAlign=middle;whiteSpace=wrap;rounded=0;" parent="chWlJP7nHv1LBfzG1qX2-84" vertex="1">
          <mxGeometry x="377" y="171" width="127" height="30" as="geometry" />
        </mxCell>
        <mxCell id="chWlJP7nHv1LBfzG1qX2-95" value="" style="group" parent="chWlJP7nHv1LBfzG1qX2-84" vertex="1" connectable="0">
          <mxGeometry x="513" width="203" height="271" as="geometry" />
        </mxCell>
        <mxCell id="chWlJP7nHv1LBfzG1qX2-96" value="" style="rounded=1;whiteSpace=wrap;html=1;fillColor=#dae8fc;strokeColor=#6c8ebf;" parent="chWlJP7nHv1LBfzG1qX2-95" vertex="1">
          <mxGeometry x="4" y="16" width="162" height="36" as="geometry" />
        </mxCell>
        <mxCell id="chWlJP7nHv1LBfzG1qX2-97" value="&lt;h2&gt;&lt;font color=&quot;#4a68ff&quot; style=&quot;font-size: 14px;&quot;&gt;&lt;font face=&quot;Verdana&quot;&gt;MYDFIR SERVERS&lt;/font&gt;&lt;/font&gt;&lt;font color=&quot;#4a68ff&quot;&gt;&lt;br&gt;&lt;/font&gt;&lt;/h2&gt;" style="text;html=1;align=center;verticalAlign=middle;resizable=0;points=[];autosize=1;strokeColor=none;fillColor=none;" parent="chWlJP7nHv1LBfzG1qX2-95" vertex="1">
          <mxGeometry x="6" width="157" height="63" as="geometry" />
        </mxCell>
        <mxCell id="chWlJP7nHv1LBfzG1qX2-98" value="" style="rounded=1;whiteSpace=wrap;html=1;fillColor=#f5f5f5;strokeColor=#666666;fontColor=#333333;dashed=1;strokeWidth=2;" parent="chWlJP7nHv1LBfzG1qX2-95" vertex="1">
          <mxGeometry y="54" width="169" height="194" as="geometry" />
        </mxCell>
        <mxCell id="chWlJP7nHv1LBfzG1qX2-99" value="" style="shape=image;verticalLabelPosition=bottom;labelBackgroundColor=default;verticalAlign=top;aspect=fixed;imageAspect=0;image=https://encrypted-tbn0.gstatic.com/images?q=tbn:ANd9GcSJFWqoaxIG1AYhwJ6dHbA58pj1tS2CDSMu0A&amp;s;" parent="chWlJP7nHv1LBfzG1qX2-95" vertex="1">
          <mxGeometry x="50" y="57" width="68" height="68" as="geometry" />
        </mxCell>
        <mxCell id="chWlJP7nHv1LBfzG1qX2-100" value="" style="shape=image;verticalLabelPosition=bottom;labelBackgroundColor=default;verticalAlign=top;aspect=fixed;imageAspect=0;image=https://encrypted-tbn0.gstatic.com/images?q=tbn:ANd9GcQoqbaSfJ294Qp1Lf5YGMAsD8BXkgZZ7Fm2aQ&amp;s;" parent="chWlJP7nHv1LBfzG1qX2-95" vertex="1">
          <mxGeometry x="38" y="142" width="86" height="86" as="geometry" />
        </mxCell>
        <mxCell id="chWlJP7nHv1LBfzG1qX2-101" value="&lt;font color=&quot;#474eff&quot; face=&quot;Comic Sans MS&quot;&gt;&lt;b&gt;MYDFIR-WIN2022&lt;/b&gt;&lt;/font&gt;" style="text;html=1;align=center;verticalAlign=middle;whiteSpace=wrap;rounded=0;" parent="chWlJP7nHv1LBfzG1qX2-95" vertex="1">
          <mxGeometry x="2" y="117" width="161" height="30" as="geometry" />
        </mxCell>
        <mxCell id="chWlJP7nHv1LBfzG1qX2-102" value="&lt;font color=&quot;#474eff&quot; face=&quot;Comic Sans MS&quot;&gt;&lt;b&gt;MYDFIR-SSH_SERVER&lt;/b&gt;&lt;/font&gt;" style="text;html=1;align=center;verticalAlign=middle;whiteSpace=wrap;rounded=0;" parent="chWlJP7nHv1LBfzG1qX2-95" vertex="1">
          <mxGeometry x="3" y="217" width="161" height="30" as="geometry" />
        </mxCell>
        <mxCell id="chWlJP7nHv1LBfzG1qX2-104" value="" style="rounded=0;orthogonalLoop=1;jettySize=auto;html=1;entryX=0;entryY=0.5;entryDx=0;entryDy=0;exitX=0.982;exitY=0.588;exitDx=0;exitDy=0;exitPerimeter=0;dashed=1;shape=link;strokeWidth=2;flowAnimation=1;strokeColor=#FF3333;" parent="chWlJP7nHv1LBfzG1qX2-84" source="chWlJP7nHv1LBfzG1qX2-91" edge="1">
          <mxGeometry relative="1" as="geometry">
            <mxPoint x="279" y="735" as="sourcePoint" />
            <mxPoint x="391" y="149.5" as="targetPoint" />
          </mxGeometry>
        </mxCell>
        <mxCell id="chWlJP7nHv1LBfzG1qX2-105" value="" style="outlineConnect=0;dashed=0;verticalLabelPosition=bottom;verticalAlign=top;align=center;html=1;shape=mxgraph.aws3.internet_gateway;fillColor=#F58534;gradientColor=none;" parent="chWlJP7nHv1LBfzG1qX2-84" vertex="1">
          <mxGeometry x="272" y="107" width="82" height="83" as="geometry" />
        </mxCell>
        <mxCell id="chWlJP7nHv1LBfzG1qX2-107" value="&lt;font color=&quot;#ff0d35&quot; face=&quot;Comic Sans MS&quot;&gt;&lt;b&gt;PowerShell IEX&lt;br&gt;&lt;/b&gt;&lt;/font&gt;" style="text;html=1;align=center;verticalAlign=middle;whiteSpace=wrap;rounded=0;" parent="chWlJP7nHv1LBfzG1qX2-84" vertex="1">
          <mxGeometry x="140" y="122" width="127" height="30" as="geometry" />
        </mxCell>
        <mxCell id="chWlJP7nHv1LBfzG1qX2-108" value="" style="group" parent="chWlJP7nHv1LBfzG1qX2-146" vertex="1" connectable="0">
          <mxGeometry x="45" y="1173" width="735" height="363" as="geometry" />
        </mxCell>
        <mxCell id="chWlJP7nHv1LBfzG1qX2-109" value="" style="rounded=1;whiteSpace=wrap;html=1;dashed=1;strokeWidth=2;fillStyle=auto;" parent="chWlJP7nHv1LBfzG1qX2-108" vertex="1">
          <mxGeometry x="3" y="43.793565683646115" width="638" height="319.20643431635386" as="geometry" />
        </mxCell>
        <mxCell id="chWlJP7nHv1LBfzG1qX2-111" value="" style="rounded=1;whiteSpace=wrap;html=1;fillColor=#dae8fc;strokeColor=#6c8ebf;" parent="chWlJP7nHv1LBfzG1qX2-108" vertex="1">
          <mxGeometry x="20" y="16.544235924932977" width="180" height="38.92761394101876" as="geometry" />
        </mxCell>
        <mxCell id="chWlJP7nHv1LBfzG1qX2-112" value="&lt;font color=&quot;#ff0d35&quot; face=&quot;Comic Sans MS&quot;&gt;&lt;b&gt;PHASE 5: Command &amp;amp; Control &lt;br&gt;&lt;/b&gt;&lt;/font&gt;" style="text;html=1;align=center;verticalAlign=middle;whiteSpace=wrap;rounded=0;" parent="chWlJP7nHv1LBfzG1qX2-108" vertex="1">
          <mxGeometry x="14" y="17.517426273458444" width="193" height="29.195710455764075" as="geometry" />
        </mxCell>
        <mxCell id="chWlJP7nHv1LBfzG1qX2-113" value="" style="group" parent="chWlJP7nHv1LBfzG1qX2-108" vertex="1" connectable="0">
          <mxGeometry y="83.69436997319035" width="134" height="138.19302949061662" as="geometry" />
        </mxCell>
        <mxCell id="chWlJP7nHv1LBfzG1qX2-114" value="" style="shape=image;verticalLabelPosition=bottom;labelBackgroundColor=default;verticalAlign=top;aspect=fixed;imageAspect=0;image=https://encrypted-tbn0.gstatic.com/images?q=tbn:ANd9GcTXLASWuxlGyHZMJMwj2rcEOtl6cVgWQvK43A&amp;s;" parent="chWlJP7nHv1LBfzG1qX2-113" vertex="1">
          <mxGeometry x="19" width="108.99731903485255" height="107.5472654155496" as="geometry" />
        </mxCell>
        <mxCell id="chWlJP7nHv1LBfzG1qX2-115" value="&lt;div&gt;&lt;b&gt;&lt;font color=&quot;#ff0d35&quot; face=&quot;Comic Sans MS&quot;&gt;Threat Actor&lt;br&gt;&lt;/font&gt;&lt;/b&gt;&lt;/div&gt;&lt;div&gt;&lt;b&gt;&lt;font color=&quot;#ff0d35&quot; face=&quot;Comic Sans MS&quot;&gt;Kali Linux&lt;br&gt;&lt;/font&gt;&lt;/b&gt;&lt;/div&gt;" style="text;html=1;align=center;verticalAlign=middle;whiteSpace=wrap;rounded=0;" parent="chWlJP7nHv1LBfzG1qX2-113" vertex="1">
          <mxGeometry y="108.99731903485255" width="134" height="29.195710455764075" as="geometry" />
        </mxCell>
        <mxCell id="chWlJP7nHv1LBfzG1qX2-116" style="rounded=0;orthogonalLoop=1;jettySize=auto;html=1;entryX=0;entryY=0.5;entryDx=0;entryDy=0;exitX=0.982;exitY=0.588;exitDx=0;exitDy=0;exitPerimeter=0;dashed=1;shape=link;strokeWidth=2;flowAnimation=1;strokeColor=#FF3333;" parent="chWlJP7nHv1LBfzG1qX2-108" target="chWlJP7nHv1LBfzG1qX2-121" edge="1">
          <mxGeometry relative="1" as="geometry">
            <mxPoint x="493.12799999999993" y="147.80425737265412" as="sourcePoint" />
            <mxPoint x="473" y="142.0857908847185" as="targetPoint" />
          </mxGeometry>
        </mxCell>
        <mxCell id="chWlJP7nHv1LBfzG1qX2-118" value="" style="group" parent="chWlJP7nHv1LBfzG1qX2-108" vertex="1" connectable="0">
          <mxGeometry x="474" width="261" height="263.73458445040217" as="geometry" />
        </mxCell>
        <mxCell id="chWlJP7nHv1LBfzG1qX2-121" value="" style="rounded=1;whiteSpace=wrap;html=1;fillColor=#f5f5f5;strokeColor=none;fontColor=#333333;dashed=1;strokeWidth=2;" parent="chWlJP7nHv1LBfzG1qX2-118" vertex="1">
          <mxGeometry y="52.55227882037534" width="217.2857142857143" height="188.79892761394103" as="geometry" />
        </mxCell>
        <mxCell id="chWlJP7nHv1LBfzG1qX2-119" value="" style="rounded=1;whiteSpace=wrap;html=1;fillColor=#dae8fc;strokeColor=#6c8ebf;" parent="chWlJP7nHv1LBfzG1qX2-118" vertex="1">
          <mxGeometry x="5.142857142857143" y="15.571045576407508" width="208.2857142857143" height="35.034852546916895" as="geometry" />
        </mxCell>
        <mxCell id="chWlJP7nHv1LBfzG1qX2-120" value="&lt;h2&gt;&lt;font color=&quot;#4a68ff&quot; style=&quot;font-size: 14px;&quot;&gt;&lt;font face=&quot;Verdana&quot;&gt;MYDFIR SERVERS&lt;/font&gt;&lt;/font&gt;&lt;font color=&quot;#4a68ff&quot;&gt;&lt;br&gt;&lt;/font&gt;&lt;/h2&gt;" style="text;html=1;align=center;verticalAlign=middle;resizable=0;points=[];autosize=1;strokeColor=none;fillColor=none;" parent="chWlJP7nHv1LBfzG1qX2-118" vertex="1">
          <mxGeometry x="7.714285714285715" width="157" height="63" as="geometry" />
        </mxCell>
        <mxCell id="chWlJP7nHv1LBfzG1qX2-122" value="" style="shape=image;verticalLabelPosition=bottom;labelBackgroundColor=default;verticalAlign=top;aspect=fixed;imageAspect=0;image=https://encrypted-tbn0.gstatic.com/images?q=tbn:ANd9GcSJFWqoaxIG1AYhwJ6dHbA58pj1tS2CDSMu0A&amp;s;" parent="chWlJP7nHv1LBfzG1qX2-118" vertex="1">
          <mxGeometry x="64.28571428571429" y="55.47184986595175" width="66.17694369973191" height="66.17694369973191" as="geometry" />
        </mxCell>
        <mxCell id="chWlJP7nHv1LBfzG1qX2-123" value="" style="shape=image;verticalLabelPosition=bottom;labelBackgroundColor=default;verticalAlign=top;aspect=fixed;imageAspect=0;image=https://encrypted-tbn0.gstatic.com/images?q=tbn:ANd9GcQoqbaSfJ294Qp1Lf5YGMAsD8BXkgZZ7Fm2aQ&amp;s;" parent="chWlJP7nHv1LBfzG1qX2-118" vertex="1">
          <mxGeometry x="48.85714285714286" y="138.19302949061662" width="83.69436997319036" height="83.69436997319036" as="geometry" />
        </mxCell>
        <mxCell id="chWlJP7nHv1LBfzG1qX2-124" value="&lt;font color=&quot;#474eff&quot; face=&quot;Comic Sans MS&quot;&gt;&lt;b&gt;MYDFIR-WIN2022&lt;/b&gt;&lt;/font&gt;" style="text;html=1;align=center;verticalAlign=middle;whiteSpace=wrap;rounded=0;" parent="chWlJP7nHv1LBfzG1qX2-118" vertex="1">
          <mxGeometry x="2.5714285714285716" y="113.8632707774799" width="207.00000000000003" height="29.19571045576408" as="geometry" />
        </mxCell>
        <mxCell id="chWlJP7nHv1LBfzG1qX2-125" value="&lt;font color=&quot;#474eff&quot; face=&quot;Comic Sans MS&quot;&gt;&lt;b&gt;MYDFIR-SSH_SERVER&lt;/b&gt;&lt;/font&gt;" style="text;html=1;align=center;verticalAlign=middle;whiteSpace=wrap;rounded=0;" parent="chWlJP7nHv1LBfzG1qX2-118" vertex="1">
          <mxGeometry x="3.8571428571428577" y="211.18230563002683" width="207.00000000000003" height="29.19571045576408" as="geometry" />
        </mxCell>
        <mxCell id="chWlJP7nHv1LBfzG1qX2-126" value="" style="rounded=0;orthogonalLoop=1;jettySize=auto;html=1;exitX=0.982;exitY=0.588;exitDx=0;exitDy=0;exitPerimeter=0;dashed=1;shape=link;strokeWidth=2;flowAnimation=1;strokeColor=#FF3333;" parent="chWlJP7nHv1LBfzG1qX2-108" source="chWlJP7nHv1LBfzG1qX2-114" edge="1">
          <mxGeometry relative="1" as="geometry">
            <mxPoint x="279" y="715.2949061662198" as="sourcePoint" />
            <mxPoint x="410" y="145.97855227882036" as="targetPoint" />
          </mxGeometry>
        </mxCell>
        <mxCell id="chWlJP7nHv1LBfzG1qX2-140" style="rounded=0;orthogonalLoop=1;jettySize=auto;html=1;entryX=1;entryY=0.25;entryDx=0;entryDy=0;dashed=1;strokeWidth=2;flowAnimation=1;strokeColor=#FF3333;" parent="chWlJP7nHv1LBfzG1qX2-108" edge="1">
          <mxGeometry relative="1" as="geometry">
            <mxPoint x="279.77878538059895" y="170.30831099195711" as="sourcePoint" />
            <mxPoint x="204" y="271.5784986595174" as="targetPoint" />
          </mxGeometry>
        </mxCell>
        <mxCell id="chWlJP7nHv1LBfzG1qX2-127" value="" style="outlineConnect=0;dashed=0;verticalLabelPosition=bottom;verticalAlign=top;align=center;html=1;shape=mxgraph.aws3.internet_gateway;fillColor=#F58534;gradientColor=none;" parent="chWlJP7nHv1LBfzG1qX2-108" vertex="1">
          <mxGeometry x="272" y="104.13136729222519" width="82" height="80.77479892761394" as="geometry" />
        </mxCell>
        <mxCell id="chWlJP7nHv1LBfzG1qX2-130" value="" style="group" parent="chWlJP7nHv1LBfzG1qX2-108" vertex="1" connectable="0">
          <mxGeometry x="403" y="101.21179624664879" width="127" height="85.64075067024129" as="geometry" />
        </mxCell>
        <mxCell id="chWlJP7nHv1LBfzG1qX2-110" value="" style="shape=image;verticalLabelPosition=bottom;labelBackgroundColor=default;verticalAlign=top;aspect=fixed;imageAspect=0;image=data:image/png,iVBORw0KGgoAAAANSUhEUgAAAOEAAADhCAMAAAAJbSJIAAABm1BMVEX///8YJ0QYJkC0ACWqACOtACQYKEKvACMYKUe3ACanACKyASXKACjAACfEACgYKUWhACLdACybACDQACrCASiZACLUACmIAB7jAC2OAB7k3+CBAB6mqa94ABvx6OkAFTx/AACSAADLzdGfAAAAADF0ABvr7O1rb3oHHDpZX2unAACYAADav8UBGz0RIkGyAAB3e4YAACE/SFoAACoeKT7BAB2/AACKAADaACIAADQAEjQAAB3VAACsAAyhABq6vMBxAADjAB7hJz/JABTGABzIAAC0ABqkAA7iz9KMABbi4+XqAADx4uXnABjhgYvWABDZlJ3TSlnKJTy+ABDsxMnCi5LFaXHLeIKuGzLXsbaNkZlLU2T+5eniYXDhP1Lqb4LpqbD50tbwlZ7iMErVP1TeAzbRXmzoXGndk53vqLDYo6rNTV3ZcoDQjJXIKkTqsba+WGXCOU7Oqa6+SViuMkXchJS7XGLFQlvHIUGnNkeqIDfCb3rCl521cXqlJjmoUF6zRV27foakXGSSKjiRRVLJsratho1lAACYZ24JBKEhAAAZbUlEQVR4nO2di1/ayNrHo7ayXuuVbVkbi7ipAkpXC1KPpKtgiB4qKCigrdWtZS2CgOju8VKt3dPd989+ZzKTZBISBA3q6Yff7ulCMknmm+cyz0xSDkXVVVddddVVV1111VVXXXXVVVddddVV1/+40nfdgVpr6e1d96DGCr276x7UWv/O3XUPaqxN8133oMZ6/+/kXXehtoq8+c6jMPNmNnTXfaipPr15E7vrPtRU79+8eX/Xfail+M03s++Yu+5F7cRszc4+/o6DkF+am33snfteAenk+8ezjx/Pfty+657URtvv5t4AvsezH75LC24vbc5CvMePv8uR3vIbsh7UzNJd98Z4RX7vFvEez859dwM9v/th1ivyPX7z+1UhaAltb78N0bfSNyMUej8rmQ8YcEZz1YKJ5T7MYX30dneDf81zuf8JSDoj8XU/fuzt1opA+mize1awcjcp7wfvzv33Z/4jYT/vzKaWVX4Lz3q7NbQV4j/OpG69y9WJD5N8v/MaTZIzs1p4QLPezaN34d577ar0R6/Mt6LpcbszOnyCn3o/dns/3mdP7fbiyAL20zbFcrgMoIh5f8ufjOh/sx907PD7rALF61WihcNwy8y9XVGNYAf0zuqVMO9lC4a9H1NAcwALb9nJx3NbmU1vt/e+EtLYRb29el62KwF6P36yoG0M/2nOC3OrNy58D4XDmdvpb/VaRi7nfacHGJJ80nuk3BHZAZbD48SHTeE/tPNT8p7FoxP5qHdHrwGzgwm93aVd/y3s/QBPAmwo7EzPhHvnvGu16+419E7ov/eD1hgoKCb66EetJukZL/hzi3IKOSrnN5vjFJPSPdkdaBuZcFZ/MEO3oNuskyr3Zj6BSEVjTMxv9m5uzlHUkWbTuxFyQe/vug1yM91mqLBer2HBlhSy8K7X7H8PXPaIukdZlUcmNOu71TuvAOhd0WuwO8NQ9HwqHVn2m8O/wS1nNejotbWETKi/WEF3mpEJ9Z+upcDRqZmw3+v33r81AQsyYVj/CfbbMCL06p+Efg8nX96ZD0f3KcFgbaE8GdaPmyXspHtXnSr09l5OLmCegf1fjhAL92+3s/JD+2VE6P/tLrp3c9EzZuyD4bktKrSdzWZ2dpZ7wagttmBWUIMZA67G0LFsJLWMlMqmt2/hcciu1yzJu9IbhpOEj15z2Cutc9N9BhHSseWVvnm/PyDK7/f31b4ymDMrFd5896HXPLMlR5QxhLm1/U5/oLddrYB/J3tThrJaCiv4vJu7mV6zt518UGEAYSy+o0UnMi7X8A2BFJjJkoS9sTmv2RtQRAcg7IUKX/f5THbF7+/V44Ny+/drNReJhb07v30gCD9Ap91UXW4ZEQauN/lL7vvLwIl27KzNC2XOsNnLZ1SBaA5vqZot+QVC8+Y1LkGvVMDX3t7Z7qlJLfTR7D1SeinwU3NYnd22EWHvfPUraWv+QHkySe1+45db6X2veY7kQxy9XrU3ggER7QlUeYXVDg0Duv1+D5LfTRB2dkbjRpGJSvkVYLJKHlfEsRHNVb33FZ9X87nBCOjZzMVCvKDcjidKMnoMtmIqXMqGNa8qL+lOvCPQWWle5+PtgRK8lXxOmcSYdMFPMPoNjcWcVxewN7CsahyZx9m+d/6okjrLmZpX8QUCK6eao02uL0A4qoEDI+yzUiRwQD3X3ZM67G9fc5Y/dSwT8IjNcRaJtsf1B7w1D2rV19fRGTBsXAx1llgwo0BUWZHuk0fswHwqqTtL4iMYj4gvd2DJUq4zkWifKLdRoRjyqwH9W5kA/ogw+pQ+tU1mjYB/vpApnU/SW6mVeb8iPwrDwP5VxXXEgwE7OjwGPdtJBVSA5n1mx6yorMwBZUzEOpWRFZjvLGSOkgdOmqZDBwe5pUwBzBrUeIBvp4LY2vJ0iGoxZBJd9KsA282x2Lwqtff6I4qDnKXVCZz+eOY9HjAjAlMidwlep9uzX9nEIR8QCaOGlG97IqFY78/nqM7S0thfULrXkfomlBApFfCkYpXOcBOSEfuMMGIoA2v93vbAez9014A/TmW0ykf18AeG6ErpQKG5clRFTDk9xhqR+c88NFngiM60rKzs5UD9oQEIzahyssiKpzTWSuUOBParfDsj7saE7oIRhBQd2oGhBk5GM8CRIroTgEBKVYUkMx1+d3nrBdx7R6FqF2AsLtGIboPGxGWQGs3iw6ZCAKUNkC9KEEvyNx0pRDWyJo69qL+wdK0uFt0tggxyUzhgtLcXREcKBObnlnIHB8mjlJ+Y72CT7JYcTCd3QdUccEvpsw+6pjvq6Tu69pNDWjSi26DHrMCGAbGAiM1noKHot2/B2JYuBlSJxJPS6nXoYHepUFjBM6GVQiGzdMDfJA8WOTAagn86Oo15qLMDCMUl3nQIFiQrfZ3tfR37WyAq3cpIC3TqZ0Ua6+Y92o0iN21xGbPAyBOE4Fu+E8xHodweJl8sFjwKK7ZHi7V/HuF0YULDAnHeL02q03LmcGcYPpYLbReiyvzvqfnzMotI6Nsy6IzZvXb8KeWR3LGzvdDnjkbde/wnBWJfX7Tmr62JhJxxb3Q40QPBAp6DRjuXQE5ExnSvOAvtCE1U9MpnTzdUDQiRdv2IKbDFMGnCcElPn0Id0Rq/LVMrwghy0UAmlnIH+HhAtJo7fuQWpmyS3J6avn3AS4QGXwYBut/tetyd7r1Qi+SXnekoqPRFumh0PvXlsNqMyvOVV29Jn5hpjH2MUXALsbayLCwleHIpyXDuPwuS+aLLFc+DkOitfNEl6jBfSZ/XOIGvqcl3cD0UbfE42Do7hFBzFyJuCWslL34u5JJbxcNUYa94WMmMyJk9dEU5rkUSF/Xl01fcIhrCCfIY+qKKYLI+Od780DVFz1zGH5bzUTCAIHmuWnWhT10urqNFLc7nypctWU84DGhsoknKCySY6shNfNsXt8qbQO0fL8PozLu4EjoRkitz5KoPAzb5DH0M1dZJ4vUVVtx7CuAW8rP4xe3W62kors8nMHbo9X7VBdjaoEyckc8SY8glwcQHWanlaC/aoRaatSkt7TqJlNbaoWJ5PihXQTPIIq42UVzRQEAGeaG7kFk9KgiM7sieWwGnzQtzB3e4FjkI4ZlF6CAdP+TK8+Eo49Lqe8PwRRnQZOhYEREM5l6K59dyFEoxUX5fmKUp2fTiygeGAq6FA39Gffp4TUr5OKWrxhIuTgJs85XOt68vpg356Apw0ui+k4dQ3FLarWm066hJU21NvmKWF4ItxB+cnviaTMB0JhMyYZuRr1XhgQENFFxLyAm+t3hiK9g/hX+NJGsjXNHlKq6t5V0uH4fRICNQk5F/XTUUFU2EEDsYiByNxN1yX/eNYGtrSzzkSECUMoFMEhmW3dCRApKQ7hhN08BqXMopjddcqkLCpqaydjMlspcPfCYJTvgX/M+klm/VSMCkSw41ZMkVKgXSRR8jYx1dmf11zaY0WFucitvlfFKCJohrM9SCdIuARoaay3kJiFx0HHNxR9myhJWwSYF3SYXydm0yqIcPH/qMXQtiCqWd96XhBMaXk6YxfF6b8MpMQrKhLGmyx0Fq8/m04YCCrrix7ymm4XSzI6rIltxRCGz1RZyIiyswKzdgE9GkGPsDXHbVzqnRBHH2jNEv3xYhxX76z1JCbpfHhBnGdQ0ygUor1uzwKU9ozcWRaFAmnylv/GIlJHTn4oQX/gd4KVxI4LIM2hpF7loFWflEYrKjeuyPVrsviOEeBH1237GRZQxJ2LGXIAD385zvYBVs4PYoZLYouAEV05nKkIkuaTrEF7eks3akaDZ9xZsd11ZBXbHwiZboW2jTpgCDRrdoLstVYDidoU0r2uwKX+TLvqBxU1keKhOIa+uUA3PrBEBrm2cQErbh9TzyoTrYhIBL1JJJqVCC5GtxpS32Jl8yJNisDxP60lmuFAj/U84lNdhEI97ez4VJa5NCxeV7SxW4po63wkoCl2eQ4biUitBEfNS2mwhnetikwffgoen81ggjPiLCuDyV4Jq4AlWEZFyW5zAQ71ISVmgzU1PqUN74gJSxlXU5Fckc4orFAAr3PiQAcbtODlmLy/wpztqq8kjfFgJ8oCH7LQEyCTJFcqFTYDVX6MwHaXxbBz7RZg+vEWsP7LlDVqAxmUoJg6e3Q4hSCna+JhN93ATma2CsgFguHvBeBw37ZDCTFgC5xPn5Q3uQJflaW1vttRr/lEoKVuJ8woTGtE+dgPR4Qq0J39xM4jp0D7BTBvf4Vvjf/b0cw8SckWICQ7YisYlb+V20uA9OslNJ5yEHJjY5Kgtq/oTlUMAoJNUTgCuMppAvRRcRERu0PyheJhk6WQy2EgoWbwPxGyjxfcIzLGA9uHx3Agj5E0SY9l0PTrBghj4Nyj7JBm35NM1cKhBthr+xriU+xaESCuDYc8ConJLwqmDTkS/DxH0PSJxW1mZKMkmbwoqGrlXoKgvqC2A84Jm+GEUd+EwnFkx44LsGm2BALs3ksblYYL4gyyKjrTFpVsTrArLdzl80dcYsibM8mJD6QFyE7KYm/lwwHZcMVouGPTK1zSNAEIKHf0TS6bVju0AW/INZDQpsSGzVT1qvKcYHZ9xtwhPBeNDOr3GQxRc7JJ30wUNOY1gj0ZDN7MUYk20VAIOJbAjctBD848IGzRYs8l/YLgKRvaUfskkWuYc+dC3eHsycCoSmfDyI2QQE7jTBaqIR8Rbk8jk6mbchvjhN8ZdFm81WXKWp1S5ovGCe7yKM2NUavK2/EX1in8efsvbjVUTmO1IUI+wafaJCVGQS4JKJI5pxHgahRwaDcYY6OAExCE0VDCYpp/DRlnPauu7CilT6VHxal7VfBpHVElllAkmGzk2laAjPfpKPxJzO03OBj23NhuizQznmWoOfKZ4Vvh6sBpWIt1PckOJXT0Qb5RMKRJq3qdkEPSymnE7n6mGXjYUUrK34lqLyNjLiumxZKiRsCDpXFVbsCt7Bb0tfioN1ayvpj2yR0kE8OQFWwhZjbWvCgmBRAdhlA97IOwSiLHJYGfHzrRM6pXJE6Y+2U5BrNQCJ5MEGT3HuiCucMZik85fUN4HMdpo8Vux0XNz6D/WcmDSCDcgeolgVnCKmgrZj6eG1IqM40kx/0JGkvglWZLucnx0QtgeLtd5OeSOKp5PazggcleGDBBlLuBvA+0I+uCYJbcmQlXXAlWAeHcEeZz87eggFTz7XdMlNIRo4ox6iLU2dE1Cp1ROHTZDDfqx6Z+FUbmfLgaMcqNCm+xEZ25/+ck4yso6L26pwQK5Ig9SuDjjEdEGFbLJrJmiKcfLb27xGxs9LhI4cbxMBgVatQQHJ2nOS6FEyWi/ObmHsAJVjq+2SYlaBZRShBnvcGgQNZPezlUn0xyKh4+iboyeYl/cwq10Oa49K/ScAEQSkdcrQt9k0lLRDqiAch/lkUJAwyHWxeRhCjk/A/6REyOr/kleoHycSR/zM0eNQNeTPrFYHSwL29xx+OQW+29/D1nZmHLIhs7XajtMwLPhQLvl1jQWjN5sPATTgphTVIw8CuqHzDScSRxZ8cmisO/HJr61WKwvhkHp6zvOfAeJUbcPxUIoe1mazSqk/nWdZWwh4MOsD35wOiVD3L919RhZi13irJqAg/uy0v8dqlSgXDk+n+qdq+gsgF8RIDBOOLMuJ4z3oUpcDpoLPYjP2WOdEB8iE1vgZAIzoNEIndqZP+llgTIjIrsE7U0M3PSOqKfZEmdboc/gbWUnHIbx+QmwY1K5G6H5kweMLa4+1LKAgC++8PLZCRjZSUzflyUH6sGSv8L5n6OSchqCwDTSS9l+/+MoiwGP2CgsScvYvQDNmp9ja1anHxCCtuxDGJD9HeIwAIEpuBNSl4KNsPg8AKzcIfQzyzMLaxUJXrX7Fbk0eBdir6kRerLm0VpO+odEu8YXt6apqanQBrLjwZWGqRlVqUsqQrOnqt8rEistamvlolDUSYAzXCVM90db+J0/6z5/01+TX0Hir5KHlX8RGWsVViTBAKsRcsBCwq6vfelztrOhg6gnUQk2M2CNVWRWtRdNi3ZVQ3+9LKxrA+zXMe5V4RPhkoQZGFEsxtrXCh5dWXG05VEtJ/BQuUdhrjNwi4ZTxf0PuAAdh8LzC4t5pFesQZclJIx/tX7Bep4KWbFji+zeVGFWOtUrd41ystHoUZQ39IwKcut5y9teFJ9iIxqxrMDwaeOgzPCs9ryDCGZ5fpOivrFQwnzNgG7a881wYtRfYz9UChuAZvmETAkIj6hpmtT944rRYQskTsYis4KgzUCo/+atfAmQdW5Br6jJksfAXC4JlF06qHbKdfz2Z+spfyIAXRqSaY0dXDwtLEzx4Wyt5rewCVo898pTHCrpyOQW+TvWA6FlAIViSXq/S2RTwzoWpBQnQkEeLacVKEFCwgn7xYn7BmvoC57o9yo3Wqv8fIP+S2LAMicK/rCp9qeAg55TQdEoUPIYXPpFbq+0fvfBMqan7+AuvyeTtP3+4VV0A0329607UUmcwC05d3nU3aihhpF747113o4YS5gTPvmcb0hfAiD/exwxomOiFJ1PfdzK1LBhTSt5f1Qlro9evXw8BWRYXF7VWkReHXgsCTUALefMAqSG4SbHltXwGWpYTEH4jvsuNhoTLgOPgpRbRhWVZFpUthSvAPil6zIAOWizoAIgDBX+bbHBwcBjq1fDYkNYNGB4eHERtXv0yKm8ffTUoaVLowMAksWVdBiRLyR9//JH49qtszxeTw+Kxw5MDwoV/GRb16pcX8oU3pMuALhPkzMCj4VevXomHYA0/Wqd+EDWm/QB5fUxsMD5Kbt+Qtg8O4F5KW4YHCBNCLG09IzxWPli80a/lLfL9ghceV7cUAB8NNvygoYYxmXBwgNIQMyGdcFKxY1HaMSx2aVC8MnkrKiSkhkvuo4TySOmMIvkYYVnqhXhxQo8EyYTjE1qEA8NSg19Ue8RzioSStYdJbyhHSI6N4w2oTyNSv5+Poy42vFQmiBG0+dEgGVWNDY90JBNqG3F0XI9Qsi6+68wj7CZjz8lm5Qi/Ee0acBc1CFW3fgS3HCYJX2r6KBRBOL5RCjg0KN0bNSG1Poz9ANnsxRhuOK38of1nP8ppBpPh7wrCH8T7IxOOaTvX2LjSdwQ1i5YYH3w1LOvV4Bglm7NhujSZTozL+9WE1PMR5O6C0RbFSB9U5AWK/vXZ5TcLGBr4n0TAJPhm+fb3M6WXjldM+IMWIb56ww8DDKmBUUSoF4mLchSWeCkcSfCeV0NyMhxXRQ2ziqPSIhFiMMvfZLw2VG7DBiSVlyKNP6fUIl12WG1EOYf/oM6lUOKIAfx7SKJ9XdJMh1Ap3MMGgnAcd7oaQkWCLSVU736tSMElNqQWH+HzDg5I3Xmp93wdE/70000JR6okbCClMuKLMXJnKSEwougcuDcN07ovngHCnwTdKaEy0VMKQC1CZrxBKWXdcyNCZqMqwvHKCBtGSB97PXgVIbWubNIwrBeFkPCnsoTKLg49HxPvXmVxWCkhOeozk/L2RzqEKiNq10WVERI2ZAYGh8d0T3ozG5KJYkBlHy1C6vm04vBFrTZVEY4/HwDTh3K37WY2bCDG6wlVkGkSUo+IVmOlg1HVhA3jg6rrGmtD4nSvh1W7tAlJS4+Ue4PX8rQywhIZTCjnihF1ntQmpKSBomF6XbvFPSNsmEbbh9Qm1CNclIzYXPZlOonw10oIx6enxXLC4DiUjKiOQl1CSiQsMxbKhE+fPq2AcGRwYn1If8RvBmponlSO+M2CRvQJG18qOipF4SPxVhpA+FSQDmEj6mJzY8N0wygctJ6PoA0l80PcsFrC6QHR+sKRckEhftIlnMYnvxlho0TYvI7GHOMI0a7podERuaeLw/iC0+svxDPqEjZXSPi0EsKR52I0V0coHl5K2Cy1XxS7OrlIrY/hGzrCPL8dwuaSLooXblQTNl6XECQX9HFsnfmlWTQhdUuEDTck1PdSgnBAMuK6ePKRxQoIGysj/LkyLy0hLMmluKVq9tQoSGO0IAgZ0dSNIhRsLxH+6wrCkRvGIRJJiLaoCacxjGo8RBs1qg6CkFoXjdgsm7AiQtS3m3lpQ8WEjVqE+PDp0iVRkhAasZGQ0GfxQo36hETraxNWbkOxP0rCRl1C8cxC3L4Qe4uvNmQk4VVxWC3hpKYNS71UQWhRAo6SFzKI8Oefa0o4cgUh9UI8XDKhgYRYNSVsfKlaEX2tIhwiCPGZjSJkfn6KETWnIEYRNjY/J/RiYlJFSI3KiNiljSKkzn5FJvxbc69hhI0jpMYb1YQDk+KGhpfKC92YkPrvPwKh9k7jCFVSE4LSTWnCKwkXRUKtZ1cKWSDhPzqvKoh3tpSwtGrDHXytsbEM4QheRXotXQqFCyOONMp7JonZkE4+qb9YisT/8/M/37R3DQ2LZ5FWCqTzjijOuz5d0hIe/4su4Tiw2fj4+MjIGB4rm0fGCRMuTkwDZ4aNGkcmtdYKNyanRU3+S/NBOaG///k/7R3MhMQzjU32fBpH0sgI+dhvcRJvHh+ZJGvQ9Uky+gTBT9PT1MYE0MbGxujoBDrP0MbES6BGhDMwOjoK9k6gVjrdW4TveEjviZSTDiA1OiFcFGpiQrhPAxvwuvjCxCrlxoa8eYL0qkWYO4newgajz19c2aW66qqrrrrqqquuuuqqq6666qqrrrpuR/8PpGlHy7768GwAAAAASUVORK5CYII=;" parent="chWlJP7nHv1LBfzG1qX2-130" vertex="1">
          <mxGeometry x="35" width="56.44504021447721" height="56.44504021447721" as="geometry" />
        </mxCell>
        <mxCell id="chWlJP7nHv1LBfzG1qX2-117" value="&lt;font color=&quot;#ff0d35&quot; face=&quot;Comic Sans MS&quot;&gt;&lt;b&gt;Mythic C2 Agent&lt;br&gt;&lt;/b&gt;&lt;/font&gt;" style="text;html=1;align=center;verticalAlign=middle;whiteSpace=wrap;rounded=0;" parent="chWlJP7nHv1LBfzG1qX2-130" vertex="1">
          <mxGeometry y="56.44504021447721" width="127" height="29.195710455764075" as="geometry" />
        </mxCell>
        <mxCell id="chWlJP7nHv1LBfzG1qX2-135" style="rounded=0;orthogonalLoop=1;jettySize=auto;html=1;entryX=0.709;entryY=0.733;entryDx=0;entryDy=0;entryPerimeter=0;dashed=1;strokeWidth=2;flowAnimation=1;strokeColor=#FF0000;" parent="chWlJP7nHv1LBfzG1qX2-108" source="chWlJP7nHv1LBfzG1qX2-131" target="chWlJP7nHv1LBfzG1qX2-115" edge="1">
          <mxGeometry relative="1" as="geometry" />
        </mxCell>
        <mxCell id="chWlJP7nHv1LBfzG1qX2-145" value="" style="group" parent="chWlJP7nHv1LBfzG1qX2-108" vertex="1" connectable="0">
          <mxGeometry x="102.16" y="270.0026809651474" width="134" height="92.6866487935657" as="geometry" />
        </mxCell>
        <mxCell id="chWlJP7nHv1LBfzG1qX2-131" value="" style="shape=image;verticalLabelPosition=bottom;labelBackgroundColor=default;verticalAlign=top;aspect=fixed;imageAspect=0;image=https://encrypted-tbn0.gstatic.com/images?q=tbn:ANd9GcSNDppj0C13rKVPGIc4VzO7ZqOA2ZZoqHAuaQ&amp;s;" parent="chWlJP7nHv1LBfzG1qX2-145" vertex="1">
          <mxGeometry x="4.510000000000005" width="117.10399463806971" height="66.41050938337801" as="geometry" />
        </mxCell>
        <mxCell id="chWlJP7nHv1LBfzG1qX2-133" value="&lt;font face=&quot;Comic Sans MS&quot;&gt;&lt;b&gt;&lt;font color=&quot;#ff0000&quot;&gt;Mythic C2 Server&lt;/font&gt;&lt;br&gt;&lt;/b&gt;&lt;/font&gt;" style="text;html=1;align=center;verticalAlign=middle;whiteSpace=wrap;rounded=0;" parent="chWlJP7nHv1LBfzG1qX2-145" vertex="1">
          <mxGeometry y="63.490938337801616" width="134" height="29.195710455764075" as="geometry" />
        </mxCell>
        <mxCell id="chWlJP7nHv1LBfzG1qX2-143" value="" style="shape=image;verticalLabelPosition=bottom;labelBackgroundColor=default;verticalAlign=top;aspect=fixed;imageAspect=0;image=data:image/png,iVBORw0KGgoAAAANSUhEUgAAAW8AAACJCAMAAADUiEkNAAAB/lBMVEX///88TWeCfoDp6uozRWB6enrb3+QXFRWVorKAe3vf4+iJlqj9/f+8u734+fr7/v+nsr7Gzdbcra+1vsWvaXbs7vF3dXZeXl7CwsJ0YmPz8/Pm1tbdqqpPU1vYr7Lkzc6dq7sAbQAAAABtbW348/kpcCSAt+z+XgB4fovP1dwyTGYdJTIfHx/9uaSSQlBgIyOnYmQ8RV0tQV5gklxIS2W7oaJARUxzsOqJQ1WLbW79TAD+rpPU1NSgn5+y0fKNlKBpk2c5cDaSwO7H3fVWY3giOVjIvq/mvb/X5/ikyvAxMTF/iJZFVGxueImxtb7o2cyolYi7rJn+mHb9PgCpqamLi4v9ooX+zb7fUQD+7eauzLzCERucrsDP4vYrGxu6Q0xgR1+zMTvGKjDNXmaSN0nVfITZioe7LjZhcou+AADPWVgAIkmVmK4ABz6HjKdyb30AOlpQOlCKXF2qnZaHd2/XybywqKORgpFsamKgiXXHt6JqTypkUj2PeWZ0XkWlk3z+4tf9bDSfpJb9hlr9bCyCl5C0mo2xqbLLtqOyus2pr5H9xLKToqGdioywubTGuL77e0bL18rTTQDgnojih2mas4WkwqbaOQCHo4iaqGpxrpP47NLBz7S51cp8n2rW2rtvlmFfkER/mXZUmHEAcTJCgDBDcUBRPSugy7tTWmKFd6ZVAAAZAUlEQVR4nO2di2PT1r3HD5YxthPJ1jTJp6KPNB5JxC27W1jJZs6JWB7CwUROqARxKHdbuzLW9o57r2P1cUdJQ9tc2sRgVgLj0W103Nv+l/d3JNuRE+fhNLYTwxds62n/zkc//c7vHEkn6EzyzCG//u1ffTr0XLurXpQgA8EDqzr601+u6jcHnmunOvrb3x44um7pv6AEXsM7WBVMt86+DtPR3128+NYv1i2uw/vn7CMYdKe9NVtTr24xOBgcLO+0xV6DsMGaTbbaZR/p6C8vvv32W79b5+Ab8B7UzbGgx3tsLDhZXrcOUGX55GR5xWBc00PuzPhkeGy8vNq3V7AyEzTDmQPuFwcHQe7EQOZs0L/N+r32tlatDB79/cV3Lr/1h814B91SubyD4clB6azLO6ibkjjmbsEmqzsOXrkyNlj+8gFd173vGIyLYS3DjpKGkCp6GCcHxiuWjKHJyYw3HY2KWmiQ7Y1A7qHRkADAg1f0gXF2DILjY2PusYAFA+PuZOXQ7BmNj49XDAqeDU+WPWwwHj78x9+8e/GnLu9xn8k+3pNAbczjPWiOB8cybvw+qyEJSe4Wg9J7mYojByUxFA+XD5Qe1sPln2dbA/tgBoUyKjrLll1ROSleOR7RMbP8BWrGjDPeB8bC+oDJJoLAXRg7EIy/p/dYPXw8g3v0cE/YHLfGB83345YV5uO0x9pLrj6omZJ01pse6w5H4x5aKD56+Q9/8HAfEMxV4Ku8XS8t8x6XxSAaYLyDk2ExLOlXvG8xxQrvA6YZN8fKPxrW9R7vOyaFuFrmrf+76PEeUzlTrRiiZ8a8rwiGZC3s+ndG1UzXvwd7ALgeDHbB19H3M11dYUvXwxl9vEvP2H+KDwyErcxVa3EP8Q6Gx97TRY/3oIk4rxxsBqHQfxz1cI9repWan3cmHA5Plv1bMoPymBtPIJIj80ol4oyb5YMZHIODU/H1yXjYCxJBpKmIO+Ad4BBC5dWT4wPl3Q4MZmTBsyl6dsBkdgQHZC3u2TkeR+FxVk0MTg6uZkms1gj6Z/eOgpPgdZnydByJSPbKFhwQtfJhODAohkxTr1hdw1sPX6nUl4MHxsv5yVlzMr5aRt+Ub/JsGf2gGY6b3k9mMnomU81UfNuOl6d7KpmMD+JgtUr4IRRaqOB78tmKrcFQVKiG22pJoFYSB8QrlZn69WVZXj4IXLb9+7BthdhWrrhfkG4hXzHGzw7WK9SgH+BG+Xd5ukOg7B09591a1eH9i6oO/P45712Wy3vcX/3/5+9/uip/mvBcuyDGOyT2hFfVBYlvVeHn2l29BLw5OfRcrVE0yXgj1L0vFdsX8luMPN6Y338KCT85ffpHe1+3/EYThfEmyUh9Kcr6RRts2mopgdDp11/Y+/qvnx30m/29y1sJgIAuKLCF7OqWW27aZEkvv+7ZoSTd//BKJr15JsWng4GDcICUduhXPzvoN/rEKu8MUlWBRHwrFbEQqSliIBLPKvAmqIKqZtsFvGxT/OXX3aJEdFmV1XwkIHOCATZFwqwgBaW6cURHhmlMIqWya6Tu1zZHm/FOKEmtoCg2jUSYGwdsyYiwOSBffrd7GOWIkpQ/SrquTuGdKu4qOBABarfgICiJxInkKu8BlE8qOprTjORVNMd4Z8G55WmwzI4ozCIpC6YOqIo355av+VaWVeWdSL6UWMObuW42GeUwmgM/jogFyUhqHI7lFVgmLCsaR6KeVyvyVCScU2DzOEc0FFFkoqkRXcDRFnh94kRCeU2p8I5IngtAuAiUeecUdmrqKufoCCy6GlId0ZhUFbBPLigSlMVpupEVVXgrZxLKicRa3rbsKFRRRONqbE6JzUlGJpdUwKfdZQMoqUhV3gFFmIKPeC6Z1KbjhURCnL6ZTSZp810HTE8kqv6taEblJ5WQF0+Atx2b0pGipPNKMvYRODzj/YI8lfw+Ngfv7qnZGlX9+0TipYRSy5vjOEdRQhyRDcCrZ5OSwfxczyXdZV2uQ1d5R6TCgJp0TwRDVDkOdtIE0oqSRBLJVd5wGjKTWEyLulMQv92C6DlFiYFbpPNl3kkBlgvLEO5JG+JJIJlYG0+SLP8Lg8OKBlgrOopkwBws6XKXMV/38YbAGTfYAjg2ogHJAcRHFkdbVZIK7zACqxXNVuDcDAQq8RtqSeDNTkN5quLfwhzkLgEleVBsXV2/WX3peoeOIlQuRJSoyhz3asyx5emMu8ydLvP+yRQ7k1EkEkd5OHcz8C5PiQUb9m5VSSr1paLlHBoFpFmb0kA5ngRc3hEpF4irEBAZb5S8mbXjHBwWe0/wHvBSKMUkzgDJKzcLSmTRiQQwcZQILAuQfIZg6gXLiAS8IxDYI/GCBBtHdALvCk9aEk88VXgHFIuAjYpEQMswrxue/2CFFQZHIjqvxJ0BHGFzgYiNYVnLrNyYdyUthVZQQIkMCHOV2fKyiPcRqGwbcYM4iyfuBkrAv74FqvIGS8o21v58xfCKvZW5llpZj3d0fXte5/JbtdwzKjh+ZNFoUwuf8d4rnQub6Fc17XmPt6CFu/adesTTr4h73+4PfuyfC7v9J91qdD+opidZ06KnX9kHdt96UfMZHXL7Y7vRvhDk+D5FtdOvtNuibejwi36j1YQbTxr9kmyPoTXDuM1VyzsUf3lz3hF4CQJSW2PcRlrD+/tt81axjAgnIkQwynZNi4i0Gvka3j1b8P6Q09BHPR9nOBksb5vW8H5p27wD3Iex/5amw0ZXdmy+a/rSNXE63Gxja9Ug7z9LUzevQws5e5Q7EWuRievFeBPI+EmjvPP0z+kPEZq8FkMvHO6a1l5C6KVmG1urRv0bwt60VpCyPeijdItMXC/G26I8wdHGeGe70CfpT2IPJ6+nUQLiiZZAD8eabm2NdsI7Dby70Fz7AkqZN+Yb5I0i1Om5RpWoGrHF+TeNdDYQaHEpGuQdQdl49iqXNAbsFgc+vxhvuhPeTH9upmVbqkHeFRV6mmvW5vLqS9J4fclE2pqpA+8opVD3NMZbbWN28gPyk/YLeIeAN98g7/ZqU94nz11wP+fZm3Dy3HxbTNxIHm9S17/ZpRtu7Q4fxlQBF6OIQ5zcjXiqEaJCWTnIDnU1xqmkW+CEJreHNuN9PtX/xjx8zn/K5m6n+lO55hrTmBhvjOvEE2yfONQLei1BiW/77FVRX7AX6IJlXw0hIvHS6waFRhqNo9yCHafLxVvS4pTdXKM3430udfLGOcRIz0Pp3ph/4429xrtOfSnQQ72HXvME1E/w1e0djuaXHEqKlDdJ7LDlaLccXkI5y4RDRIll8Y50y5Caa/RmvNVj6Dzwnk/130Ao9wa6cKG5tjSourwtcGvGGZD3eu8nQvV351zfV7HmvlaFcTPrry3qy89OInSj3w0kb6ylbTJzqycswTFEuChMRd35GFKbXO/W450A2r2v2cSNwhxOAvFDvVZz7WhILm+yEe8cQM6l+vv7wc0/vVG7Z+EKJy0otl2gThgjXCzixYUiNaxb1KSGbpjWrUWrqe3m9byFM4eANu/fxgbivQFvJrSm2wQcgqvTk6JWqsxm+Ivbf0LoBrzPpeAFuJmDn3yjtuqO5MP257Y+veAsjxLE806pZ2FJvC59oemi4SxZ1PlT9lITLK6qjn/bvRW2VXEnenu9k3BqiWjEkQoWZxErSSQSiaJPxIIVMoll9FhRjIiGxYIWX+ThFOUJpSGe8CG8QTzamdz2vLUBbzV1g7n3uZOp/vPg6+dr9hSQoAqC16OsQgzEAEBE3TAndMMCQe0WUFPbQ/Xiie3GDtVKgqefOYjd7RLlmEechTeX9Pzn/zNZmru5EKC2kc4e1PW8TWlBl2xJRdayYdw0b36QXkQ5qFXFL8Mfa4vW0m4a7cUT3qrL+2TqAjrfn5r/6kZ/SkWfpXbzh3+4NmrPC3avl6Ecqo0tHK/iUESbwirPyYQTOV44HOPy36sSNFQhq9QQIfkQCUU5b5rIEGjlKNl1/wbxtB7vfiAM0Rsd+yqVOgn0j9WWd81XCTWLhI026nZX7UJs3IB36FCvm5t42UlizQ8J6365tX0SlfykXv/3hdQ5dLK//zPgDREcIstn/j3nLBIllmZIh01SzGS1whiatnQs5UyiOSRTxFLWin2s4xDhyQARC7zJmUQ2SNjBOIodAskMxj+k438D3nbva71nLCgPcetKsn5HrvyqkcAutiEPv7rBMZDXzqoN279ZPngbwgm490l07Ngx5uCfsnZPVWTKFpdMmoc4GFGXkkt0GS2jAJ3+XA9w+eX4AqW6I3N8+LpJeWuO2vkFicood9UwF/GC9oU4/cG0aTWBNwCvJICC4seddySLSAXRkRwcEB3iaKGsxmNwB01djBfiH0uWjijmeAezbgKelws8gdXgHeBXUiFa4HksFGAXHkuw3hKjhkXqHM/NtAlvNdUPMaT/JOMN0ymY8deYBUu1sBK6JmWhtWYWRBxHKo3OMS+GFTzEv+nvYxzlIoKj8URkd5dZREY4K5MoVPzg94Tjm8Hb77t+N84X6QBvU7IEzUxwhuuLYS5nFp0FiqlqxnNiNkpDaNGh1MDLXJHPvy8bt4o2tnkr/wGvxw0pS40e5BRwoLB4izpm8c38wqwhNmb0Jry/guwE4sg84w0T/cfmawMKU/facOif9U7QpnUAubyt0HreII4mlbXNHAHOfwESJ6HbiaksfWK5VUztZgtjbi4llDdiKwSZJV9sQ/jPUfYBEYRFHZaBgdzNhEY9ZhPe51Mnj830f3rB5X27f+ZeLlW3w0pFTYS6iVR25ZXn6/EmUFke6j3TBqO20ia8b6TOzczcO+bxPnl7Zubrfn8At2kIE80gvMljW4QmBIm21nTm3xa16vo3ZTnKmtCao6y+42REPJ80JNjA3aaFl+s34Q0Ny5mZmVyZ94V7MzM1HbJ2PqNDS+n1x7q1kM+Y15ybLb5O4cXvcia79noD7V2XmdjIoHP25/yJJVufC88hx7TzOjR2rvEtdBSXd6lUktfzPpbqn7lzrMz7PJq5AzHctye4c5STOVXlrG5oP8BnW64Xq+WIsvb6Dl2XOGQpoZhIjhXnsSFi4G1YPF8s4t1tsW8u4C2vlMivZ+V6+Un/HVTl/RfAfX7zL2utdni9uL1yeT898uqTOrzvsaSkEk9yt2HuL749c1GEUQ4azLmQ4CZeUF0T+K+ynFVGIYRl1ppklTjqVol8GDIAqPM5SAEEVP3HIU6Islqfc1t+0HjGAtpeTtswb1aueh2CrZTL+1X5aR3eX7MAkuo/fw54X+hnvbJ37vnit2OiBfyljfkstXl9inzBB5agRlqwFggqImLlRMi6raJD33f4pSI1KQ3n8uLU+2ZxwXmfomlapHaxuIgQn7cp7vnYXF4UEcejQjTbtS3TG+X9aGV2pXQXXrM7ZLUbYvF79tX7r95fxzt3784dlzK8Uu7nzJ2Zr1f3hMZ4iS9ZRjpbEjFv8AbHY0vgiGNglQBvjg8dZpcXybIJrR9ommENOaS4qBEja1IEC8KYlKCuMjiMObPA3yIickJZypHtNTsb5f0lwL7/1wezpx600ccZb1kFrasvb0AyeOErBtpV6ja6A0vm137B1ud+nVOY3VeLflDnCdpBPCkhVlA1tq7vpIXaMB9k+d8MFOqcSzz12QVIWGDJ7fVf0a47qvdrfVmfN7C951aP6snPUjfca5e5mXsz976q7JmnUZ5gO6RBoIA0Cyl4iRAahdqyRXlho7w5CHGxw3yMtcihoY6ISIRugthcawxm2oj3sdS9r6uVY9WDv/o0Vb3oYHO6Yzth5+DSIk1SCVn0ekS36HJEbJH5jfJejnELsmHlB2xqRcIR5Fi2o9sWncOtbu+s551LHasfJuZvnytPqRrSWDlZhxGRoZUscyHWj05adT9co7yzFOtywcISzsXhlATe2DKhwYNxC5/M2ID3/MZ7zO+V2wtd3rIsd0b83lIPIY0tlZps3mZivA+/8+5luXHe68/dVlX6Lu+XL/+ocd73H5568N3dBw/uPmiyiRvJ9e8/Xnxnu/798Fu0UnpcKj16dH/2Efco+vD+40elR6UV7lFp9u5sic00P1N08+933n67cd6P7j56/N3Kd7OPHjfZxI3k8r741jvb9e8vv1mZvV/6ZmXl7sr92b+uPP7b479999eVu7NPTj0o3V1huvtd041mvNW3L15snHfb5fn3H7ft36rbW4OElRi7VnM3Cg0xjt1Dw+5PVtl1H6Hxy78Ny+X97v7l3UB+Ujru1yn/zJPq1EqTjXbj9+kXdxC/265GeZ96dUP9ujp1pMlG7+/nSZ7zbqF2wPvJ8ft/f/L3J98cuQ8Tp745derbf3z75KnH++n94895b6Yd8D5199vj/3iy8vd/rhxfefLNt3ePP4C3in+vHHnOezMJNZZvi/fTp0dePf70iBc5/gkTR44/Pf603fFEDUnxfaewuG/jd7esiftOmrzVeDOzRzbU/1an7reEd7SGNxLkfShhK97dP9mGmn13sne/PSE1/t3k39wl1daXXHT/jKdECL/D+nKjO6VboTX5ibR/+mN3yruArrVv5JZ9fP2y8gx6I7wdO47OxK8vHgyhvC2iJWqjrG23MpXcv7yjtfF7W9Aw94k8h66LD698fBMl0M/RF6OEm36z2fb6tH9576C9k/ueXEt/iK6nH175IkOpegVNj85Jz3lvpZ3yzk6q/3fpw+i19MOxbJeqozHw74Tw0fbuRNsd7VPeql8NxBNJFTmJCEhExJLhPStzlvqDHshpUGt548uXf7z39YH/z6f17Kf+k7W8QyFN2vsSNZ+88WP3KW+5232OaT8J7TPeIf94YW0dB2yH2oe8+ee8W6O144U9591csfEH/eOFdQ7vNBqemJgYbmNfST2tqy/bbdAOVI/3cN9Qeqivb2ikdnHuCpI5folDISHKIdWxohyRYhziChwngOup8A8V5WjTxrPsTN6jjPVwH/Becximr5L457ZtLxjLb3LQ/CmWegr8l5nrkpHhi45TLH5gLL5f1CMLzQpPHcl7eGgUWE8A7rXRhOZMWnRMo0RxGiNsUdnhQxBOLYy5HlwoYQuzMSvEpt1C21G85bRL/dJQ3wjAZtpi7C//UySkJa36juItDI8OD6djIy7q4dHRESG9x6rLzuKNRuGVHp0YGRqaSE/0DQ1DaKkFXvOUJLtxmiDVqj4J441eWVmyioKwh1CQ7zFCsm5oo6wZw9sZxaWzeKfT3d0IdQ/Lo8NQYfZBaEGjNSWyTawVbXOKOtSxJp24cxUtxwJUN/S8mLcyRVt3AkJBJ6Zjk6uOlbdt3EPkLB/nb1mYd3gHY51HaBGViouQRsOkZZmFOE96kEW380RNZ/FGE6OjaQjiwwIa6hsaRWl5GI36a1JniupLOp2y7XwglnlBt6+iPK9DvjJgc4llfYHqdFku8Pp10dbta/pyfkFKaAIaM8RlvBD/wiwGprRAFNFQsWg4OjY5FF+8tWxbhBZ4ktnGkwYdxrt72Ks1h9PDQ0MwNQLhfNS/rQwlNpEjsFGG2PiOKgsrRZhVved4wbljsERHXMxdrcIaNihBTBUELsbFBAFxsIoIgqDKgkDcO95V7/534dnjjYS+tDtIHAAHV4fSCOmJvVSmTuMNOcqlYSF96RJUlJe8xmX3xOqmquuCQnfbels6jjeSJ0ZGIEEZSQuXRiZY2EC+pDCfvYll/OXNWxx22lJUlzfpJN4xryk/NDE8kYaUECK4sBrB8zaJL4S+7KKYftAWW1n/IFfu/e4M3mh0xG3OD43IQ0PDgjwycmm4WiqCQjiKS1GO4Pb8ATjm35RaagfxTg8Npfv6RtKAexTS79GmjufdqBhogilWO4c3mhiRZTkNMcWtKNN168Y2jvfIRDvpesMI5N6gib6RmIyEmvR7zg7hQggTLPGEimwk+Pb8/bQQ6RzegtuWZ/2xEyMCqs2+7emM5VDqFNs73mMn5SdI8HCz/u/h4eG+Yb+Dl8d7lNlgtpzKxntscVDpQN7ykAcb3HsE6s2JtdfU2qpO5T3cV9bIJTSy2geb849CRGC+3KcnhKJYIubqhipH0Gp/3+6dBB3IGzG3hoZOOawM+a85OHHkGBavx6e0glXMh/N2EeL5EsrpN/NiTkSWYS1R0yrO6ZbD04MyXnLyEX0X/9pHJ/IW+iaGAPioez9EOSssi8cxA3MWNrFYiBPLdHARE5GgQqjH4cHZi3jxMdGWsLXIO5jnY3Bs8iYm0q4NjtuJvCHnHu4D754Yhdx7dGS4/l6bDMrq71fd5YHyOpM3qv7FFHlitO7TaO3qIOxY3vXlWJxJJEpEjLVCyEQ2XsKEhtw/itESPWO8bVId73FZWRYR1afc8R5trU3jD3Y475rxHjn/eI8t9O/Dp198RX42eLddLu933778jPDmHrPxHts4lLY3Ht7Fd54R3vcfPrn/3d0HK20f7/EZ4f1o5dHj2ZXvSu0d7/Hy5dPPSH3Zdj1j+Unb9Zx3a/Wcd2vVMbz3yXhKgux/8j+6T3mfSSoH94kUnw4mv2+3OTvRmf8HO/FzEswtBxAAAAAASUVORK5CYII=;" parent="chWlJP7nHv1LBfzG1qX2-145" vertex="1">
          <mxGeometry x="44.84" y="48.65951742627346" width="46.71313672922252" height="17.439571045576407" as="geometry" />
        </mxCell>
        <mxCell id="chWlJP7nHv1LBfzG1qX2-286" value="&lt;font color=&quot;#0000ff&quot; face=&quot;Comic Sans MS&quot;&gt;&lt;b&gt;Establish Connection&lt;br&gt;&lt;/b&gt;&lt;/font&gt;" style="rounded=1;whiteSpace=wrap;html=1;" parent="chWlJP7nHv1LBfzG1qX2-108" vertex="1">
          <mxGeometry x="176" y="202" width="146" height="29" as="geometry" />
        </mxCell>
        <mxCell id="chWlJP7nHv1LBfzG1qX2-398" value="" style="group" parent="chWlJP7nHv1LBfzG1qX2-146" vertex="1" connectable="0">
          <mxGeometry x="55" y="1586" width="735" height="363" as="geometry" />
        </mxCell>
        <mxCell id="chWlJP7nHv1LBfzG1qX2-399" value="" style="rounded=1;whiteSpace=wrap;html=1;dashed=1;strokeWidth=2;fillStyle=auto;" parent="chWlJP7nHv1LBfzG1qX2-398" vertex="1">
          <mxGeometry x="3" y="43.793565683646115" width="638" height="319.20643431635386" as="geometry" />
        </mxCell>
        <mxCell id="chWlJP7nHv1LBfzG1qX2-400" value="" style="rounded=1;whiteSpace=wrap;html=1;fillColor=#dae8fc;strokeColor=#6c8ebf;" parent="chWlJP7nHv1LBfzG1qX2-398" vertex="1">
          <mxGeometry x="20" y="16.544235924932977" width="180" height="38.92761394101876" as="geometry" />
        </mxCell>
        <mxCell id="chWlJP7nHv1LBfzG1qX2-401" value="&lt;font color=&quot;#ff0d35&quot; face=&quot;Comic Sans MS&quot;&gt;&lt;b&gt;PHASE 6: Exfiltration &lt;br&gt;&lt;/b&gt;&lt;/font&gt;" style="text;html=1;align=center;verticalAlign=middle;whiteSpace=wrap;rounded=0;" parent="chWlJP7nHv1LBfzG1qX2-398" vertex="1">
          <mxGeometry x="14" y="17.517426273458444" width="193" height="29.195710455764075" as="geometry" />
        </mxCell>
        <mxCell id="chWlJP7nHv1LBfzG1qX2-402" value="" style="group" parent="chWlJP7nHv1LBfzG1qX2-398" vertex="1" connectable="0">
          <mxGeometry y="83.69436997319035" width="134" height="138.19302949061662" as="geometry" />
        </mxCell>
        <mxCell id="chWlJP7nHv1LBfzG1qX2-403" value="" style="shape=image;verticalLabelPosition=bottom;labelBackgroundColor=default;verticalAlign=top;aspect=fixed;imageAspect=0;image=https://encrypted-tbn0.gstatic.com/images?q=tbn:ANd9GcTXLASWuxlGyHZMJMwj2rcEOtl6cVgWQvK43A&amp;s;" parent="chWlJP7nHv1LBfzG1qX2-402" vertex="1">
          <mxGeometry x="19" width="108.99731903485255" height="107.5472654155496" as="geometry" />
        </mxCell>
        <mxCell id="chWlJP7nHv1LBfzG1qX2-404" value="&lt;div&gt;&lt;b&gt;&lt;font color=&quot;#ff0d35&quot; face=&quot;Comic Sans MS&quot;&gt;Threat Actor&lt;br&gt;&lt;/font&gt;&lt;/b&gt;&lt;/div&gt;&lt;div&gt;&lt;b&gt;&lt;font color=&quot;#ff0d35&quot; face=&quot;Comic Sans MS&quot;&gt;Kali Linux&lt;br&gt;&lt;/font&gt;&lt;/b&gt;&lt;/div&gt;" style="text;html=1;align=center;verticalAlign=middle;whiteSpace=wrap;rounded=0;" parent="chWlJP7nHv1LBfzG1qX2-402" vertex="1">
          <mxGeometry y="108.99731903485255" width="134" height="29.195710455764075" as="geometry" />
        </mxCell>
        <mxCell id="chWlJP7nHv1LBfzG1qX2-405" style="rounded=0;orthogonalLoop=1;jettySize=auto;html=1;entryX=0;entryY=0.5;entryDx=0;entryDy=0;exitX=0.982;exitY=0.588;exitDx=0;exitDy=0;exitPerimeter=0;dashed=1;shape=link;strokeWidth=2;flowAnimation=1;strokeColor=#FF3333;" parent="chWlJP7nHv1LBfzG1qX2-398" target="chWlJP7nHv1LBfzG1qX2-407" edge="1">
          <mxGeometry relative="1" as="geometry">
            <mxPoint x="493.12799999999993" y="147.80425737265412" as="sourcePoint" />
            <mxPoint x="473" y="142.0857908847185" as="targetPoint" />
          </mxGeometry>
        </mxCell>
        <mxCell id="chWlJP7nHv1LBfzG1qX2-406" value="" style="group" parent="chWlJP7nHv1LBfzG1qX2-398" vertex="1" connectable="0">
          <mxGeometry x="474" width="261" height="263.73458445040217" as="geometry" />
        </mxCell>
        <mxCell id="chWlJP7nHv1LBfzG1qX2-407" value="" style="rounded=1;whiteSpace=wrap;html=1;fillColor=#f5f5f5;strokeColor=none;fontColor=#333333;dashed=1;strokeWidth=2;" parent="chWlJP7nHv1LBfzG1qX2-406" vertex="1">
          <mxGeometry y="52.55227882037534" width="217.2857142857143" height="188.79892761394103" as="geometry" />
        </mxCell>
        <mxCell id="chWlJP7nHv1LBfzG1qX2-408" value="" style="rounded=1;whiteSpace=wrap;html=1;fillColor=#dae8fc;strokeColor=#6c8ebf;" parent="chWlJP7nHv1LBfzG1qX2-406" vertex="1">
          <mxGeometry x="5.142857142857143" y="15.571045576407508" width="208.2857142857143" height="35.034852546916895" as="geometry" />
        </mxCell>
        <mxCell id="chWlJP7nHv1LBfzG1qX2-409" value="&lt;h2&gt;&lt;font color=&quot;#4a68ff&quot; style=&quot;font-size: 14px;&quot;&gt;&lt;font face=&quot;Verdana&quot;&gt;MYDFIR SERVERS&lt;/font&gt;&lt;/font&gt;&lt;font color=&quot;#4a68ff&quot;&gt;&lt;br&gt;&lt;/font&gt;&lt;/h2&gt;" style="text;html=1;align=center;verticalAlign=middle;resizable=0;points=[];autosize=1;strokeColor=none;fillColor=none;" parent="chWlJP7nHv1LBfzG1qX2-406" vertex="1">
          <mxGeometry x="7.714285714285715" width="157" height="63" as="geometry" />
        </mxCell>
        <mxCell id="chWlJP7nHv1LBfzG1qX2-410" value="" style="shape=image;verticalLabelPosition=bottom;labelBackgroundColor=default;verticalAlign=top;aspect=fixed;imageAspect=0;image=https://encrypted-tbn0.gstatic.com/images?q=tbn:ANd9GcSJFWqoaxIG1AYhwJ6dHbA58pj1tS2CDSMu0A&amp;s;" parent="chWlJP7nHv1LBfzG1qX2-406" vertex="1">
          <mxGeometry x="70.28571428571429" y="55.47184986595175" width="66.17694369973191" height="66.17694369973191" as="geometry" />
        </mxCell>
        <mxCell id="chWlJP7nHv1LBfzG1qX2-411" value="" style="shape=image;verticalLabelPosition=bottom;labelBackgroundColor=default;verticalAlign=top;aspect=fixed;imageAspect=0;image=https://encrypted-tbn0.gstatic.com/images?q=tbn:ANd9GcQoqbaSfJ294Qp1Lf5YGMAsD8BXkgZZ7Fm2aQ&amp;s;" parent="chWlJP7nHv1LBfzG1qX2-406" vertex="1">
          <mxGeometry x="64.85714285714286" y="138.19302949061662" width="83.69436997319036" height="83.69436997319036" as="geometry" />
        </mxCell>
        <mxCell id="chWlJP7nHv1LBfzG1qX2-412" value="&lt;font color=&quot;#474eff&quot; face=&quot;Comic Sans MS&quot;&gt;&lt;b&gt;MYDFIR-WIN2022&lt;/b&gt;&lt;/font&gt;" style="text;html=1;align=center;verticalAlign=middle;whiteSpace=wrap;rounded=0;" parent="chWlJP7nHv1LBfzG1qX2-406" vertex="1">
          <mxGeometry x="2.5714285714285716" y="113.8632707774799" width="207.00000000000003" height="29.19571045576408" as="geometry" />
        </mxCell>
        <mxCell id="chWlJP7nHv1LBfzG1qX2-413" value="&lt;font color=&quot;#474eff&quot; face=&quot;Comic Sans MS&quot;&gt;&lt;b&gt;MYDFIR-SSH_SERVER&lt;/b&gt;&lt;/font&gt;" style="text;html=1;align=center;verticalAlign=middle;whiteSpace=wrap;rounded=0;" parent="chWlJP7nHv1LBfzG1qX2-406" vertex="1">
          <mxGeometry x="3.8571428571428577" y="211.18230563002683" width="207.00000000000003" height="29.19571045576408" as="geometry" />
        </mxCell>
        <mxCell id="chWlJP7nHv1LBfzG1qX2-426" value="" style="shape=image;verticalLabelPosition=bottom;labelBackgroundColor=default;verticalAlign=top;aspect=fixed;imageAspect=0;image=https://encrypted-tbn0.gstatic.com/images?q=tbn:ANd9GcQQ7RoFZpsZrD9GbaSIjbdYPP1MOaI-9CF81g&amp;s;" parent="chWlJP7nHv1LBfzG1qX2-406" vertex="1">
          <mxGeometry x="27" y="181.99999999999997" width="50.43" height="33.56" as="geometry" />
        </mxCell>
        <mxCell id="chWlJP7nHv1LBfzG1qX2-414" value="" style="rounded=0;orthogonalLoop=1;jettySize=auto;html=1;exitX=0.982;exitY=0.588;exitDx=0;exitDy=0;exitPerimeter=0;dashed=1;shape=link;strokeWidth=2;flowAnimation=1;strokeColor=#FF3333;" parent="chWlJP7nHv1LBfzG1qX2-398" source="chWlJP7nHv1LBfzG1qX2-403" edge="1">
          <mxGeometry relative="1" as="geometry">
            <mxPoint x="279" y="715.2949061662198" as="sourcePoint" />
            <mxPoint x="410" y="145.97855227882036" as="targetPoint" />
          </mxGeometry>
        </mxCell>
        <mxCell id="chWlJP7nHv1LBfzG1qX2-415" style="rounded=0;orthogonalLoop=1;jettySize=auto;html=1;entryX=1;entryY=0.25;entryDx=0;entryDy=0;dashed=1;strokeWidth=2;flowAnimation=1;strokeColor=#FF3333;" parent="chWlJP7nHv1LBfzG1qX2-398" edge="1">
          <mxGeometry relative="1" as="geometry">
            <mxPoint x="279.77878538059895" y="170.30831099195711" as="sourcePoint" />
            <mxPoint x="204" y="271.5784986595174" as="targetPoint" />
          </mxGeometry>
        </mxCell>
        <mxCell id="chWlJP7nHv1LBfzG1qX2-416" value="" style="outlineConnect=0;dashed=0;verticalLabelPosition=bottom;verticalAlign=top;align=center;html=1;shape=mxgraph.aws3.internet_gateway;fillColor=#F58534;gradientColor=none;" parent="chWlJP7nHv1LBfzG1qX2-398" vertex="1">
          <mxGeometry x="272" y="104.13136729222519" width="82" height="80.77479892761394" as="geometry" />
        </mxCell>
        <mxCell id="chWlJP7nHv1LBfzG1qX2-417" value="" style="group" parent="chWlJP7nHv1LBfzG1qX2-398" vertex="1" connectable="0">
          <mxGeometry x="403" y="101.21179624664879" width="127" height="85.64075067024129" as="geometry" />
        </mxCell>
        <mxCell id="chWlJP7nHv1LBfzG1qX2-418" value="" style="shape=image;verticalLabelPosition=bottom;labelBackgroundColor=default;verticalAlign=top;aspect=fixed;imageAspect=0;image=data:image/png,iVBORw0KGgoAAAANSUhEUgAAAOEAAADhCAMAAAAJbSJIAAABm1BMVEX///8YJ0QYJkC0ACWqACOtACQYKEKvACMYKUe3ACanACKyASXKACjAACfEACgYKUWhACLdACybACDQACrCASiZACLUACmIAB7jAC2OAB7k3+CBAB6mqa94ABvx6OkAFTx/AACSAADLzdGfAAAAADF0ABvr7O1rb3oHHDpZX2unAACYAADav8UBGz0RIkGyAAB3e4YAACE/SFoAACoeKT7BAB2/AACKAADaACIAADQAEjQAAB3VAACsAAyhABq6vMBxAADjAB7hJz/JABTGABzIAAC0ABqkAA7iz9KMABbi4+XqAADx4uXnABjhgYvWABDZlJ3TSlnKJTy+ABDsxMnCi5LFaXHLeIKuGzLXsbaNkZlLU2T+5eniYXDhP1Lqb4LpqbD50tbwlZ7iMErVP1TeAzbRXmzoXGndk53vqLDYo6rNTV3ZcoDQjJXIKkTqsba+WGXCOU7Oqa6+SViuMkXchJS7XGLFQlvHIUGnNkeqIDfCb3rCl521cXqlJjmoUF6zRV27foakXGSSKjiRRVLJsratho1lAACYZ24JBKEhAAAZbUlEQVR4nO2di1/ayNrHo7ayXuuVbVkbi7ipAkpXC1KPpKtgiB4qKCigrdWtZS2CgOju8VKt3dPd989+ZzKTZBISBA3q6Yff7ulCMknmm+cyz0xSDkXVVVddddVVV1111VVXXXXVVVddddVV1/+40nfdgVpr6e1d96DGCr276x7UWv/O3XUPaqxN8133oMZ6/+/kXXehtoq8+c6jMPNmNnTXfaipPr15E7vrPtRU79+8eX/Xfail+M03s++Yu+5F7cRszc4+/o6DkF+am33snfteAenk+8ezjx/Pfty+657URtvv5t4AvsezH75LC24vbc5CvMePv8uR3vIbsh7UzNJd98Z4RX7vFvEez859dwM9v/th1ivyPX7z+1UhaAltb78N0bfSNyMUej8rmQ8YcEZz1YKJ5T7MYX30dneDf81zuf8JSDoj8XU/fuzt1opA+mize1awcjcp7wfvzv33Z/4jYT/vzKaWVX4Lz3q7NbQV4j/OpG69y9WJD5N8v/MaTZIzs1p4QLPezaN34d577ar0R6/Mt6LpcbszOnyCn3o/dns/3mdP7fbiyAL20zbFcrgMoIh5f8ufjOh/sx907PD7rALF61WihcNwy8y9XVGNYAf0zuqVMO9lC4a9H1NAcwALb9nJx3NbmU1vt/e+EtLYRb29el62KwF6P36yoG0M/2nOC3OrNy58D4XDmdvpb/VaRi7nfacHGJJ80nuk3BHZAZbD48SHTeE/tPNT8p7FoxP5qHdHrwGzgwm93aVd/y3s/QBPAmwo7EzPhHvnvGu16+419E7ov/eD1hgoKCb66EetJukZL/hzi3IKOSrnN5vjFJPSPdkdaBuZcFZ/MEO3oNuskyr3Zj6BSEVjTMxv9m5uzlHUkWbTuxFyQe/vug1yM91mqLBer2HBlhSy8K7X7H8PXPaIukdZlUcmNOu71TuvAOhd0WuwO8NQ9HwqHVn2m8O/wS1nNejotbWETKi/WEF3mpEJ9Z+upcDRqZmw3+v33r81AQsyYVj/CfbbMCL06p+Efg8nX96ZD0f3KcFgbaE8GdaPmyXspHtXnSr09l5OLmCegf1fjhAL92+3s/JD+2VE6P/tLrp3c9EzZuyD4bktKrSdzWZ2dpZ7wagttmBWUIMZA67G0LFsJLWMlMqmt2/hcciu1yzJu9IbhpOEj15z2Cutc9N9BhHSseWVvnm/PyDK7/f31b4ymDMrFd5896HXPLMlR5QxhLm1/U5/oLddrYB/J3tThrJaCiv4vJu7mV6zt518UGEAYSy+o0UnMi7X8A2BFJjJkoS9sTmv2RtQRAcg7IUKX/f5THbF7+/V44Ny+/drNReJhb07v30gCD9Ap91UXW4ZEQauN/lL7vvLwIl27KzNC2XOsNnLZ1SBaA5vqZot+QVC8+Y1LkGvVMDX3t7Z7qlJLfTR7D1SeinwU3NYnd22EWHvfPUraWv+QHkySe1+45db6X2veY7kQxy9XrU3ggER7QlUeYXVDg0Duv1+D5LfTRB2dkbjRpGJSvkVYLJKHlfEsRHNVb33FZ9X87nBCOjZzMVCvKDcjidKMnoMtmIqXMqGNa8qL+lOvCPQWWle5+PtgRK8lXxOmcSYdMFPMPoNjcWcVxewN7CsahyZx9m+d/6okjrLmZpX8QUCK6eao02uL0A4qoEDI+yzUiRwQD3X3ZM67G9fc5Y/dSwT8IjNcRaJtsf1B7w1D2rV19fRGTBsXAx1llgwo0BUWZHuk0fswHwqqTtL4iMYj4gvd2DJUq4zkWifKLdRoRjyqwH9W5kA/ogw+pQ+tU1mjYB/vpApnU/SW6mVeb8iPwrDwP5VxXXEgwE7OjwGPdtJBVSA5n1mx6yorMwBZUzEOpWRFZjvLGSOkgdOmqZDBwe5pUwBzBrUeIBvp4LY2vJ0iGoxZBJd9KsA282x2Lwqtff6I4qDnKXVCZz+eOY9HjAjAlMidwlep9uzX9nEIR8QCaOGlG97IqFY78/nqM7S0thfULrXkfomlBApFfCkYpXOcBOSEfuMMGIoA2v93vbAez9014A/TmW0ykf18AeG6ErpQKG5clRFTDk9xhqR+c88NFngiM60rKzs5UD9oQEIzahyssiKpzTWSuUOBParfDsj7saE7oIRhBQd2oGhBk5GM8CRIroTgEBKVYUkMx1+d3nrBdx7R6FqF2AsLtGIboPGxGWQGs3iw6ZCAKUNkC9KEEvyNx0pRDWyJo69qL+wdK0uFt0tggxyUzhgtLcXREcKBObnlnIHB8mjlJ+Y72CT7JYcTCd3QdUccEvpsw+6pjvq6Tu69pNDWjSi26DHrMCGAbGAiM1noKHot2/B2JYuBlSJxJPS6nXoYHepUFjBM6GVQiGzdMDfJA8WOTAagn86Oo15qLMDCMUl3nQIFiQrfZ3tfR37WyAq3cpIC3TqZ0Ua6+Y92o0iN21xGbPAyBOE4Fu+E8xHodweJl8sFjwKK7ZHi7V/HuF0YULDAnHeL02q03LmcGcYPpYLbReiyvzvqfnzMotI6Nsy6IzZvXb8KeWR3LGzvdDnjkbde/wnBWJfX7Tmr62JhJxxb3Q40QPBAp6DRjuXQE5ExnSvOAvtCE1U9MpnTzdUDQiRdv2IKbDFMGnCcElPn0Id0Rq/LVMrwghy0UAmlnIH+HhAtJo7fuQWpmyS3J6avn3AS4QGXwYBut/tetyd7r1Qi+SXnekoqPRFumh0PvXlsNqMyvOVV29Jn5hpjH2MUXALsbayLCwleHIpyXDuPwuS+aLLFc+DkOitfNEl6jBfSZ/XOIGvqcl3cD0UbfE42Do7hFBzFyJuCWslL34u5JJbxcNUYa94WMmMyJk9dEU5rkUSF/Xl01fcIhrCCfIY+qKKYLI+Od780DVFz1zGH5bzUTCAIHmuWnWhT10urqNFLc7nypctWU84DGhsoknKCySY6shNfNsXt8qbQO0fL8PozLu4EjoRkitz5KoPAzb5DH0M1dZJ4vUVVtx7CuAW8rP4xe3W62kors8nMHbo9X7VBdjaoEyckc8SY8glwcQHWanlaC/aoRaatSkt7TqJlNbaoWJ5PihXQTPIIq42UVzRQEAGeaG7kFk9KgiM7sieWwGnzQtzB3e4FjkI4ZlF6CAdP+TK8+Eo49Lqe8PwRRnQZOhYEREM5l6K59dyFEoxUX5fmKUp2fTiygeGAq6FA39Gffp4TUr5OKWrxhIuTgJs85XOt68vpg356Apw0ui+k4dQ3FLarWm066hJU21NvmKWF4ItxB+cnviaTMB0JhMyYZuRr1XhgQENFFxLyAm+t3hiK9g/hX+NJGsjXNHlKq6t5V0uH4fRICNQk5F/XTUUFU2EEDsYiByNxN1yX/eNYGtrSzzkSECUMoFMEhmW3dCRApKQ7hhN08BqXMopjddcqkLCpqaydjMlspcPfCYJTvgX/M+klm/VSMCkSw41ZMkVKgXSRR8jYx1dmf11zaY0WFucitvlfFKCJohrM9SCdIuARoaay3kJiFx0HHNxR9myhJWwSYF3SYXydm0yqIcPH/qMXQtiCqWd96XhBMaXk6YxfF6b8MpMQrKhLGmyx0Fq8/m04YCCrrix7ymm4XSzI6rIltxRCGz1RZyIiyswKzdgE9GkGPsDXHbVzqnRBHH2jNEv3xYhxX76z1JCbpfHhBnGdQ0ygUor1uzwKU9ozcWRaFAmnylv/GIlJHTn4oQX/gd4KVxI4LIM2hpF7loFWflEYrKjeuyPVrsviOEeBH1237GRZQxJ2LGXIAD385zvYBVs4PYoZLYouAEV05nKkIkuaTrEF7eks3akaDZ9xZsd11ZBXbHwiZboW2jTpgCDRrdoLstVYDidoU0r2uwKX+TLvqBxU1keKhOIa+uUA3PrBEBrm2cQErbh9TzyoTrYhIBL1JJJqVCC5GtxpS32Jl8yJNisDxP60lmuFAj/U84lNdhEI97ez4VJa5NCxeV7SxW4po63wkoCl2eQ4biUitBEfNS2mwhnetikwffgoen81ggjPiLCuDyV4Jq4AlWEZFyW5zAQ71ISVmgzU1PqUN74gJSxlXU5Fckc4orFAAr3PiQAcbtODlmLy/wpztqq8kjfFgJ8oCH7LQEyCTJFcqFTYDVX6MwHaXxbBz7RZg+vEWsP7LlDVqAxmUoJg6e3Q4hSCna+JhN93ATma2CsgFguHvBeBw37ZDCTFgC5xPn5Q3uQJflaW1vttRr/lEoKVuJ8woTGtE+dgPR4Qq0J39xM4jp0D7BTBvf4Vvjf/b0cw8SckWICQ7YisYlb+V20uA9OslNJ5yEHJjY5Kgtq/oTlUMAoJNUTgCuMppAvRRcRERu0PyheJhk6WQy2EgoWbwPxGyjxfcIzLGA9uHx3Agj5E0SY9l0PTrBghj4Nyj7JBm35NM1cKhBthr+xriU+xaESCuDYc8ConJLwqmDTkS/DxH0PSJxW1mZKMkmbwoqGrlXoKgvqC2A84Jm+GEUd+EwnFkx44LsGm2BALs3ksblYYL4gyyKjrTFpVsTrArLdzl80dcYsibM8mJD6QFyE7KYm/lwwHZcMVouGPTK1zSNAEIKHf0TS6bVju0AW/INZDQpsSGzVT1qvKcYHZ9xtwhPBeNDOr3GQxRc7JJ30wUNOY1gj0ZDN7MUYk20VAIOJbAjctBD848IGzRYs8l/YLgKRvaUfskkWuYc+dC3eHsycCoSmfDyI2QQE7jTBaqIR8Rbk8jk6mbchvjhN8ZdFm81WXKWp1S5ovGCe7yKM2NUavK2/EX1in8efsvbjVUTmO1IUI+wafaJCVGQS4JKJI5pxHgahRwaDcYY6OAExCE0VDCYpp/DRlnPauu7CilT6VHxal7VfBpHVElllAkmGzk2laAjPfpKPxJzO03OBj23NhuizQznmWoOfKZ4Vvh6sBpWIt1PckOJXT0Qb5RMKRJq3qdkEPSymnE7n6mGXjYUUrK34lqLyNjLiumxZKiRsCDpXFVbsCt7Bb0tfioN1ayvpj2yR0kE8OQFWwhZjbWvCgmBRAdhlA97IOwSiLHJYGfHzrRM6pXJE6Y+2U5BrNQCJ5MEGT3HuiCucMZik85fUN4HMdpo8Vux0XNz6D/WcmDSCDcgeolgVnCKmgrZj6eG1IqM40kx/0JGkvglWZLucnx0QtgeLtd5OeSOKp5PazggcleGDBBlLuBvA+0I+uCYJbcmQlXXAlWAeHcEeZz87eggFTz7XdMlNIRo4ox6iLU2dE1Cp1ROHTZDDfqx6Z+FUbmfLgaMcqNCm+xEZ25/+ck4yso6L26pwQK5Ig9SuDjjEdEGFbLJrJmiKcfLb27xGxs9LhI4cbxMBgVatQQHJ2nOS6FEyWi/ObmHsAJVjq+2SYlaBZRShBnvcGgQNZPezlUn0xyKh4+iboyeYl/cwq10Oa49K/ScAEQSkdcrQt9k0lLRDqiAch/lkUJAwyHWxeRhCjk/A/6REyOr/kleoHycSR/zM0eNQNeTPrFYHSwL29xx+OQW+29/D1nZmHLIhs7XajtMwLPhQLvl1jQWjN5sPATTgphTVIw8CuqHzDScSRxZ8cmisO/HJr61WKwvhkHp6zvOfAeJUbcPxUIoe1mazSqk/nWdZWwh4MOsD35wOiVD3L919RhZi13irJqAg/uy0v8dqlSgXDk+n+qdq+gsgF8RIDBOOLMuJ4z3oUpcDpoLPYjP2WOdEB8iE1vgZAIzoNEIndqZP+llgTIjIrsE7U0M3PSOqKfZEmdboc/gbWUnHIbx+QmwY1K5G6H5kweMLa4+1LKAgC++8PLZCRjZSUzflyUH6sGSv8L5n6OSchqCwDTSS9l+/+MoiwGP2CgsScvYvQDNmp9ja1anHxCCtuxDGJD9HeIwAIEpuBNSl4KNsPg8AKzcIfQzyzMLaxUJXrX7Fbk0eBdir6kRerLm0VpO+odEu8YXt6apqanQBrLjwZWGqRlVqUsqQrOnqt8rEistamvlolDUSYAzXCVM90db+J0/6z5/01+TX0Hir5KHlX8RGWsVViTBAKsRcsBCwq6vfelztrOhg6gnUQk2M2CNVWRWtRdNi3ZVQ3+9LKxrA+zXMe5V4RPhkoQZGFEsxtrXCh5dWXG05VEtJ/BQuUdhrjNwi4ZTxf0PuAAdh8LzC4t5pFesQZclJIx/tX7Bep4KWbFji+zeVGFWOtUrd41ystHoUZQ39IwKcut5y9teFJ9iIxqxrMDwaeOgzPCs9ryDCGZ5fpOivrFQwnzNgG7a881wYtRfYz9UChuAZvmETAkIj6hpmtT944rRYQskTsYis4KgzUCo/+atfAmQdW5Br6jJksfAXC4JlF06qHbKdfz2Z+spfyIAXRqSaY0dXDwtLEzx4Wyt5rewCVo898pTHCrpyOQW+TvWA6FlAIViSXq/S2RTwzoWpBQnQkEeLacVKEFCwgn7xYn7BmvoC57o9yo3Wqv8fIP+S2LAMicK/rCp9qeAg55TQdEoUPIYXPpFbq+0fvfBMqan7+AuvyeTtP3+4VV0A0329607UUmcwC05d3nU3aihhpF747113o4YS5gTPvmcb0hfAiD/exwxomOiFJ1PfdzK1LBhTSt5f1Qlro9evXw8BWRYXF7VWkReHXgsCTUALefMAqSG4SbHltXwGWpYTEH4jvsuNhoTLgOPgpRbRhWVZFpUthSvAPil6zIAOWizoAIgDBX+bbHBwcBjq1fDYkNYNGB4eHERtXv0yKm8ffTUoaVLowMAksWVdBiRLyR9//JH49qtszxeTw+Kxw5MDwoV/GRb16pcX8oU3pMuALhPkzMCj4VevXomHYA0/Wqd+EDWm/QB5fUxsMD5Kbt+Qtg8O4F5KW4YHCBNCLG09IzxWPli80a/lLfL9ghceV7cUAB8NNvygoYYxmXBwgNIQMyGdcFKxY1HaMSx2aVC8MnkrKiSkhkvuo4TySOmMIvkYYVnqhXhxQo8EyYTjE1qEA8NSg19Ue8RzioSStYdJbyhHSI6N4w2oTyNSv5+Poy42vFQmiBG0+dEgGVWNDY90JBNqG3F0XI9Qsi6+68wj7CZjz8lm5Qi/Ee0acBc1CFW3fgS3HCYJX2r6KBRBOL5RCjg0KN0bNSG1Poz9ANnsxRhuOK38of1nP8ppBpPh7wrCH8T7IxOOaTvX2LjSdwQ1i5YYH3w1LOvV4Bglm7NhujSZTozL+9WE1PMR5O6C0RbFSB9U5AWK/vXZ5TcLGBr4n0TAJPhm+fb3M6WXjldM+IMWIb56ww8DDKmBUUSoF4mLchSWeCkcSfCeV0NyMhxXRQ2ziqPSIhFiMMvfZLw2VG7DBiSVlyKNP6fUIl12WG1EOYf/oM6lUOKIAfx7SKJ9XdJMh1Ap3MMGgnAcd7oaQkWCLSVU736tSMElNqQWH+HzDg5I3Xmp93wdE/70000JR6okbCClMuKLMXJnKSEwougcuDcN07ovngHCnwTdKaEy0VMKQC1CZrxBKWXdcyNCZqMqwvHKCBtGSB97PXgVIbWubNIwrBeFkPCnsoTKLg49HxPvXmVxWCkhOeozk/L2RzqEKiNq10WVERI2ZAYGh8d0T3ozG5KJYkBlHy1C6vm04vBFrTZVEY4/HwDTh3K37WY2bCDG6wlVkGkSUo+IVmOlg1HVhA3jg6rrGmtD4nSvh1W7tAlJS4+Ue4PX8rQywhIZTCjnihF1ntQmpKSBomF6XbvFPSNsmEbbh9Qm1CNclIzYXPZlOonw10oIx6enxXLC4DiUjKiOQl1CSiQsMxbKhE+fPq2AcGRwYn1If8RvBmponlSO+M2CRvQJG18qOipF4SPxVhpA+FSQDmEj6mJzY8N0wygctJ6PoA0l80PcsFrC6QHR+sKRckEhftIlnMYnvxlho0TYvI7GHOMI0a7podERuaeLw/iC0+svxDPqEjZXSPi0EsKR52I0V0coHl5K2Cy1XxS7OrlIrY/hGzrCPL8dwuaSLooXblQTNl6XECQX9HFsnfmlWTQhdUuEDTck1PdSgnBAMuK6ePKRxQoIGysj/LkyLy0hLMmluKVq9tQoSGO0IAgZ0dSNIhRsLxH+6wrCkRvGIRJJiLaoCacxjGo8RBs1qg6CkFoXjdgsm7AiQtS3m3lpQ8WEjVqE+PDp0iVRkhAasZGQ0GfxQo36hETraxNWbkOxP0rCRl1C8cxC3L4Qe4uvNmQk4VVxWC3hpKYNS71UQWhRAo6SFzKI8Oefa0o4cgUh9UI8XDKhgYRYNSVsfKlaEX2tIhwiCPGZjSJkfn6KETWnIEYRNjY/J/RiYlJFSI3KiNiljSKkzn5FJvxbc69hhI0jpMYb1YQDk+KGhpfKC92YkPrvPwKh9k7jCFVSE4LSTWnCKwkXRUKtZ1cKWSDhPzqvKoh3tpSwtGrDHXytsbEM4QheRXotXQqFCyOONMp7JonZkE4+qb9YisT/8/M/37R3DQ2LZ5FWCqTzjijOuz5d0hIe/4su4Tiw2fj4+MjIGB4rm0fGCRMuTkwDZ4aNGkcmtdYKNyanRU3+S/NBOaG///k/7R3MhMQzjU32fBpH0sgI+dhvcRJvHh+ZJGvQ9Uky+gTBT9PT1MYE0MbGxujoBDrP0MbES6BGhDMwOjoK9k6gVjrdW4TveEjviZSTDiA1OiFcFGpiQrhPAxvwuvjCxCrlxoa8eYL0qkWYO4newgajz19c2aW66qqrrrrqqquuuuqqq6666qqrrrpuR/8PpGlHy7768GwAAAAASUVORK5CYII=;" parent="chWlJP7nHv1LBfzG1qX2-417" vertex="1">
          <mxGeometry x="35" width="56.44504021447721" height="56.44504021447721" as="geometry" />
        </mxCell>
        <mxCell id="chWlJP7nHv1LBfzG1qX2-419" value="&lt;font color=&quot;#ff0d35&quot; face=&quot;Comic Sans MS&quot;&gt;&lt;b&gt;Mythic C2 Agent&lt;br&gt;&lt;/b&gt;&lt;/font&gt;" style="text;html=1;align=center;verticalAlign=middle;whiteSpace=wrap;rounded=0;" parent="chWlJP7nHv1LBfzG1qX2-417" vertex="1">
          <mxGeometry y="56.44504021447721" width="127" height="29.195710455764075" as="geometry" />
        </mxCell>
        <mxCell id="chWlJP7nHv1LBfzG1qX2-420" style="rounded=0;orthogonalLoop=1;jettySize=auto;html=1;entryX=0.709;entryY=0.733;entryDx=0;entryDy=0;entryPerimeter=0;dashed=1;strokeWidth=2;flowAnimation=1;strokeColor=#FF0000;" parent="chWlJP7nHv1LBfzG1qX2-398" source="chWlJP7nHv1LBfzG1qX2-422" target="chWlJP7nHv1LBfzG1qX2-404" edge="1">
          <mxGeometry relative="1" as="geometry" />
        </mxCell>
        <mxCell id="chWlJP7nHv1LBfzG1qX2-421" value="" style="group" parent="chWlJP7nHv1LBfzG1qX2-398" vertex="1" connectable="0">
          <mxGeometry x="102.16" y="270.0026809651474" width="134" height="92.6866487935657" as="geometry" />
        </mxCell>
        <mxCell id="chWlJP7nHv1LBfzG1qX2-422" value="" style="shape=image;verticalLabelPosition=bottom;labelBackgroundColor=default;verticalAlign=top;aspect=fixed;imageAspect=0;image=https://encrypted-tbn0.gstatic.com/images?q=tbn:ANd9GcSNDppj0C13rKVPGIc4VzO7ZqOA2ZZoqHAuaQ&amp;s;" parent="chWlJP7nHv1LBfzG1qX2-421" vertex="1">
          <mxGeometry x="4.510000000000005" width="117.10399463806971" height="66.41050938337801" as="geometry" />
        </mxCell>
        <mxCell id="chWlJP7nHv1LBfzG1qX2-423" value="&lt;font face=&quot;Comic Sans MS&quot;&gt;&lt;b&gt;&lt;font color=&quot;#ff0000&quot;&gt;Mythic C2 Server&lt;/font&gt;&lt;br&gt;&lt;/b&gt;&lt;/font&gt;" style="text;html=1;align=center;verticalAlign=middle;whiteSpace=wrap;rounded=0;" parent="chWlJP7nHv1LBfzG1qX2-421" vertex="1">
          <mxGeometry y="63.490938337801616" width="134" height="29.195710455764075" as="geometry" />
        </mxCell>
        <mxCell id="chWlJP7nHv1LBfzG1qX2-424" value="" style="shape=image;verticalLabelPosition=bottom;labelBackgroundColor=default;verticalAlign=top;aspect=fixed;imageAspect=0;image=data:image/png,iVBORw0KGgoAAAANSUhEUgAAAW8AAACJCAMAAADUiEkNAAAB/lBMVEX///88TWeCfoDp6uozRWB6enrb3+QXFRWVorKAe3vf4+iJlqj9/f+8u734+fr7/v+nsr7Gzdbcra+1vsWvaXbs7vF3dXZeXl7CwsJ0YmPz8/Pm1tbdqqpPU1vYr7Lkzc6dq7sAbQAAAABtbW348/kpcCSAt+z+XgB4fovP1dwyTGYdJTIfHx/9uaSSQlBgIyOnYmQ8RV0tQV5gklxIS2W7oaJARUxzsOqJQ1WLbW79TAD+rpPU1NSgn5+y0fKNlKBpk2c5cDaSwO7H3fVWY3giOVjIvq/mvb/X5/ikyvAxMTF/iJZFVGxueImxtb7o2cyolYi7rJn+mHb9PgCpqamLi4v9ooX+zb7fUQD+7eauzLzCERucrsDP4vYrGxu6Q0xgR1+zMTvGKjDNXmaSN0nVfITZioe7LjZhcou+AADPWVgAIkmVmK4ABz6HjKdyb30AOlpQOlCKXF2qnZaHd2/XybywqKORgpFsamKgiXXHt6JqTypkUj2PeWZ0XkWlk3z+4tf9bDSfpJb9hlr9bCyCl5C0mo2xqbLLtqOyus2pr5H9xLKToqGdioywubTGuL77e0bL18rTTQDgnojih2mas4WkwqbaOQCHo4iaqGpxrpP47NLBz7S51cp8n2rW2rtvlmFfkER/mXZUmHEAcTJCgDBDcUBRPSugy7tTWmKFd6ZVAAAZAUlEQVR4nO2di2PT1r3HD5YxthPJ1jTJp6KPNB5JxC27W1jJZs6JWB7CwUROqARxKHdbuzLW9o57r2P1cUdJQ9tc2sRgVgLj0W103Nv+l/d3JNuRE+fhNLYTwxds62n/zkc//c7vHEkn6EzyzCG//u1ffTr0XLurXpQgA8EDqzr601+u6jcHnmunOvrb3x44um7pv6AEXsM7WBVMt86+DtPR3128+NYv1i2uw/vn7CMYdKe9NVtTr24xOBgcLO+0xV6DsMGaTbbaZR/p6C8vvv32W79b5+Ab8B7UzbGgx3tsLDhZXrcOUGX55GR5xWBc00PuzPhkeGy8vNq3V7AyEzTDmQPuFwcHQe7EQOZs0L/N+r32tlatDB79/cV3Lr/1h814B91SubyD4clB6azLO6ibkjjmbsEmqzsOXrkyNlj+8gFd173vGIyLYS3DjpKGkCp6GCcHxiuWjKHJyYw3HY2KWmiQ7Y1A7qHRkADAg1f0gXF2DILjY2PusYAFA+PuZOXQ7BmNj49XDAqeDU+WPWwwHj78x9+8e/GnLu9xn8k+3pNAbczjPWiOB8cybvw+qyEJSe4Wg9J7mYojByUxFA+XD5Qe1sPln2dbA/tgBoUyKjrLll1ROSleOR7RMbP8BWrGjDPeB8bC+oDJJoLAXRg7EIy/p/dYPXw8g3v0cE/YHLfGB83345YV5uO0x9pLrj6omZJ01pse6w5H4x5aKD56+Q9/8HAfEMxV4Ku8XS8t8x6XxSAaYLyDk2ExLOlXvG8xxQrvA6YZN8fKPxrW9R7vOyaFuFrmrf+76PEeUzlTrRiiZ8a8rwiGZC3s+ndG1UzXvwd7ALgeDHbB19H3M11dYUvXwxl9vEvP2H+KDwyErcxVa3EP8Q6Gx97TRY/3oIk4rxxsBqHQfxz1cI9repWan3cmHA5Plv1bMoPymBtPIJIj80ol4oyb5YMZHIODU/H1yXjYCxJBpKmIO+Ad4BBC5dWT4wPl3Q4MZmTBsyl6dsBkdgQHZC3u2TkeR+FxVk0MTg6uZkms1gj6Z/eOgpPgdZnydByJSPbKFhwQtfJhODAohkxTr1hdw1sPX6nUl4MHxsv5yVlzMr5aRt+Ub/JsGf2gGY6b3k9mMnomU81UfNuOl6d7KpmMD+JgtUr4IRRaqOB78tmKrcFQVKiG22pJoFYSB8QrlZn69WVZXj4IXLb9+7BthdhWrrhfkG4hXzHGzw7WK9SgH+BG+Xd5ukOg7B09591a1eH9i6oO/P45712Wy3vcX/3/5+9/uip/mvBcuyDGOyT2hFfVBYlvVeHn2l29BLw5OfRcrVE0yXgj1L0vFdsX8luMPN6Y338KCT85ffpHe1+3/EYThfEmyUh9Kcr6RRts2mopgdDp11/Y+/qvnx30m/29y1sJgIAuKLCF7OqWW27aZEkvv+7ZoSTd//BKJr15JsWng4GDcICUduhXPzvoN/rEKu8MUlWBRHwrFbEQqSliIBLPKvAmqIKqZtsFvGxT/OXX3aJEdFmV1XwkIHOCATZFwqwgBaW6cURHhmlMIqWya6Tu1zZHm/FOKEmtoCg2jUSYGwdsyYiwOSBffrd7GOWIkpQ/SrquTuGdKu4qOBABarfgICiJxInkKu8BlE8qOprTjORVNMd4Z8G55WmwzI4ozCIpC6YOqIo355av+VaWVeWdSL6UWMObuW42GeUwmgM/jogFyUhqHI7lFVgmLCsaR6KeVyvyVCScU2DzOEc0FFFkoqkRXcDRFnh94kRCeU2p8I5IngtAuAiUeecUdmrqKufoCCy6GlId0ZhUFbBPLigSlMVpupEVVXgrZxLKicRa3rbsKFRRRONqbE6JzUlGJpdUwKfdZQMoqUhV3gFFmIKPeC6Z1KbjhURCnL6ZTSZp810HTE8kqv6taEblJ5WQF0+Atx2b0pGipPNKMvYRODzj/YI8lfw+Ngfv7qnZGlX9+0TipYRSy5vjOEdRQhyRDcCrZ5OSwfxczyXdZV2uQ1d5R6TCgJp0TwRDVDkOdtIE0oqSRBLJVd5wGjKTWEyLulMQv92C6DlFiYFbpPNl3kkBlgvLEO5JG+JJIJlYG0+SLP8Lg8OKBlgrOopkwBws6XKXMV/38YbAGTfYAjg2ogHJAcRHFkdbVZIK7zACqxXNVuDcDAQq8RtqSeDNTkN5quLfwhzkLgEleVBsXV2/WX3peoeOIlQuRJSoyhz3asyx5emMu8ydLvP+yRQ7k1EkEkd5OHcz8C5PiQUb9m5VSSr1paLlHBoFpFmb0kA5ngRc3hEpF4irEBAZb5S8mbXjHBwWe0/wHvBSKMUkzgDJKzcLSmTRiQQwcZQILAuQfIZg6gXLiAS8IxDYI/GCBBtHdALvCk9aEk88VXgHFIuAjYpEQMswrxue/2CFFQZHIjqvxJ0BHGFzgYiNYVnLrNyYdyUthVZQQIkMCHOV2fKyiPcRqGwbcYM4iyfuBkrAv74FqvIGS8o21v58xfCKvZW5llpZj3d0fXte5/JbtdwzKjh+ZNFoUwuf8d4rnQub6Fc17XmPt6CFu/adesTTr4h73+4PfuyfC7v9J91qdD+opidZ06KnX9kHdt96UfMZHXL7Y7vRvhDk+D5FtdOvtNuibejwi36j1YQbTxr9kmyPoTXDuM1VyzsUf3lz3hF4CQJSW2PcRlrD+/tt81axjAgnIkQwynZNi4i0Gvka3j1b8P6Q09BHPR9nOBksb5vW8H5p27wD3Iex/5amw0ZXdmy+a/rSNXE63Gxja9Ug7z9LUzevQws5e5Q7EWuRievFeBPI+EmjvPP0z+kPEZq8FkMvHO6a1l5C6KVmG1urRv0bwt60VpCyPeijdItMXC/G26I8wdHGeGe70CfpT2IPJ6+nUQLiiZZAD8eabm2NdsI7Dby70Fz7AkqZN+Yb5I0i1Om5RpWoGrHF+TeNdDYQaHEpGuQdQdl49iqXNAbsFgc+vxhvuhPeTH9upmVbqkHeFRV6mmvW5vLqS9J4fclE2pqpA+8opVD3NMZbbWN28gPyk/YLeIeAN98g7/ZqU94nz11wP+fZm3Dy3HxbTNxIHm9S17/ZpRtu7Q4fxlQBF6OIQ5zcjXiqEaJCWTnIDnU1xqmkW+CEJreHNuN9PtX/xjx8zn/K5m6n+lO55hrTmBhvjOvEE2yfONQLei1BiW/77FVRX7AX6IJlXw0hIvHS6waFRhqNo9yCHafLxVvS4pTdXKM3430udfLGOcRIz0Pp3ph/4429xrtOfSnQQ72HXvME1E/w1e0djuaXHEqKlDdJ7LDlaLccXkI5y4RDRIll8Y50y5Caa/RmvNVj6Dzwnk/130Ao9wa6cKG5tjSourwtcGvGGZD3eu8nQvV351zfV7HmvlaFcTPrry3qy89OInSj3w0kb6ylbTJzqycswTFEuChMRd35GFKbXO/W450A2r2v2cSNwhxOAvFDvVZz7WhILm+yEe8cQM6l+vv7wc0/vVG7Z+EKJy0otl2gThgjXCzixYUiNaxb1KSGbpjWrUWrqe3m9byFM4eANu/fxgbivQFvJrSm2wQcgqvTk6JWqsxm+Ivbf0LoBrzPpeAFuJmDn3yjtuqO5MP257Y+veAsjxLE806pZ2FJvC59oemi4SxZ1PlT9lITLK6qjn/bvRW2VXEnenu9k3BqiWjEkQoWZxErSSQSiaJPxIIVMoll9FhRjIiGxYIWX+ThFOUJpSGe8CG8QTzamdz2vLUBbzV1g7n3uZOp/vPg6+dr9hSQoAqC16OsQgzEAEBE3TAndMMCQe0WUFPbQ/Xiie3GDtVKgqefOYjd7RLlmEechTeX9Pzn/zNZmru5EKC2kc4e1PW8TWlBl2xJRdayYdw0b36QXkQ5qFXFL8Mfa4vW0m4a7cUT3qrL+2TqAjrfn5r/6kZ/SkWfpXbzh3+4NmrPC3avl6Ecqo0tHK/iUESbwirPyYQTOV44HOPy36sSNFQhq9QQIfkQCUU5b5rIEGjlKNl1/wbxtB7vfiAM0Rsd+yqVOgn0j9WWd81XCTWLhI026nZX7UJs3IB36FCvm5t42UlizQ8J6365tX0SlfykXv/3hdQ5dLK//zPgDREcIstn/j3nLBIllmZIh01SzGS1whiatnQs5UyiOSRTxFLWin2s4xDhyQARC7zJmUQ2SNjBOIodAskMxj+k438D3nbva71nLCgPcetKsn5HrvyqkcAutiEPv7rBMZDXzqoN279ZPngbwgm490l07Ngx5uCfsnZPVWTKFpdMmoc4GFGXkkt0GS2jAJ3+XA9w+eX4AqW6I3N8+LpJeWuO2vkFicood9UwF/GC9oU4/cG0aTWBNwCvJICC4seddySLSAXRkRwcEB3iaKGsxmNwB01djBfiH0uWjijmeAezbgKelws8gdXgHeBXUiFa4HksFGAXHkuw3hKjhkXqHM/NtAlvNdUPMaT/JOMN0ymY8deYBUu1sBK6JmWhtWYWRBxHKo3OMS+GFTzEv+nvYxzlIoKj8URkd5dZREY4K5MoVPzg94Tjm8Hb77t+N84X6QBvU7IEzUxwhuuLYS5nFp0FiqlqxnNiNkpDaNGh1MDLXJHPvy8bt4o2tnkr/wGvxw0pS40e5BRwoLB4izpm8c38wqwhNmb0Jry/guwE4sg84w0T/cfmawMKU/facOif9U7QpnUAubyt0HreII4mlbXNHAHOfwESJ6HbiaksfWK5VUztZgtjbi4llDdiKwSZJV9sQ/jPUfYBEYRFHZaBgdzNhEY9ZhPe51Mnj830f3rB5X27f+ZeLlW3w0pFTYS6iVR25ZXn6/EmUFke6j3TBqO20ia8b6TOzczcO+bxPnl7Zubrfn8At2kIE80gvMljW4QmBIm21nTm3xa16vo3ZTnKmtCao6y+42REPJ80JNjA3aaFl+s34Q0Ny5mZmVyZ94V7MzM1HbJ2PqNDS+n1x7q1kM+Y15ybLb5O4cXvcia79noD7V2XmdjIoHP25/yJJVufC88hx7TzOjR2rvEtdBSXd6lUktfzPpbqn7lzrMz7PJq5AzHctye4c5STOVXlrG5oP8BnW64Xq+WIsvb6Dl2XOGQpoZhIjhXnsSFi4G1YPF8s4t1tsW8u4C2vlMivZ+V6+Un/HVTl/RfAfX7zL2utdni9uL1yeT898uqTOrzvsaSkEk9yt2HuL749c1GEUQ4azLmQ4CZeUF0T+K+ynFVGIYRl1ppklTjqVol8GDIAqPM5SAEEVP3HIU6Islqfc1t+0HjGAtpeTtswb1aueh2CrZTL+1X5aR3eX7MAkuo/fw54X+hnvbJ37vnit2OiBfyljfkstXl9inzBB5agRlqwFggqImLlRMi6raJD33f4pSI1KQ3n8uLU+2ZxwXmfomlapHaxuIgQn7cp7vnYXF4UEcejQjTbtS3TG+X9aGV2pXQXXrM7ZLUbYvF79tX7r95fxzt3784dlzK8Uu7nzJ2Zr1f3hMZ4iS9ZRjpbEjFv8AbHY0vgiGNglQBvjg8dZpcXybIJrR9ommENOaS4qBEja1IEC8KYlKCuMjiMObPA3yIickJZypHtNTsb5f0lwL7/1wezpx600ccZb1kFrasvb0AyeOErBtpV6ja6A0vm137B1ud+nVOY3VeLflDnCdpBPCkhVlA1tq7vpIXaMB9k+d8MFOqcSzz12QVIWGDJ7fVf0a47qvdrfVmfN7C951aP6snPUjfca5e5mXsz976q7JmnUZ5gO6RBoIA0Cyl4iRAahdqyRXlho7w5CHGxw3yMtcihoY6ISIRugthcawxm2oj3sdS9r6uVY9WDv/o0Vb3oYHO6Yzth5+DSIk1SCVn0ekS36HJEbJH5jfJejnELsmHlB2xqRcIR5Fi2o9sWncOtbu+s551LHasfJuZvnytPqRrSWDlZhxGRoZUscyHWj05adT9co7yzFOtywcISzsXhlATe2DKhwYNxC5/M2ID3/MZ7zO+V2wtd3rIsd0b83lIPIY0tlZps3mZivA+/8+5luXHe68/dVlX6Lu+XL/+ocd73H5568N3dBw/uPmiyiRvJ9e8/Xnxnu/798Fu0UnpcKj16dH/2Efco+vD+40elR6UV7lFp9u5sic00P1N08+933n67cd6P7j56/N3Kd7OPHjfZxI3k8r741jvb9e8vv1mZvV/6ZmXl7sr92b+uPP7b479999eVu7NPTj0o3V1huvtd041mvNW3L15snHfb5fn3H7ft36rbW4OElRi7VnM3Cg0xjt1Dw+5PVtl1H6Hxy78Ny+X97v7l3UB+Ujru1yn/zJPq1EqTjXbj9+kXdxC/265GeZ96dUP9ujp1pMlG7+/nSZ7zbqF2wPvJ8ft/f/L3J98cuQ8Tp745derbf3z75KnH++n94895b6Yd8D5199vj/3iy8vd/rhxfefLNt3ePP4C3in+vHHnOezMJNZZvi/fTp0dePf70iBc5/gkTR44/Pf603fFEDUnxfaewuG/jd7esiftOmrzVeDOzRzbU/1an7reEd7SGNxLkfShhK97dP9mGmn13sne/PSE1/t3k39wl1daXXHT/jKdECL/D+nKjO6VboTX5ibR/+mN3yruArrVv5JZ9fP2y8gx6I7wdO47OxK8vHgyhvC2iJWqjrG23MpXcv7yjtfF7W9Aw94k8h66LD698fBMl0M/RF6OEm36z2fb6tH9576C9k/ueXEt/iK6nH175IkOpegVNj85Jz3lvpZ3yzk6q/3fpw+i19MOxbJeqozHw74Tw0fbuRNsd7VPeql8NxBNJFTmJCEhExJLhPStzlvqDHshpUGt548uXf7z39YH/z6f17Kf+k7W8QyFN2vsSNZ+88WP3KW+5232OaT8J7TPeIf94YW0dB2yH2oe8+ee8W6O144U9591csfEH/eOFdQ7vNBqemJgYbmNfST2tqy/bbdAOVI/3cN9Qeqivb2ikdnHuCpI5folDISHKIdWxohyRYhziChwngOup8A8V5WjTxrPsTN6jjPVwH/Becximr5L457ZtLxjLb3LQ/CmWegr8l5nrkpHhi45TLH5gLL5f1CMLzQpPHcl7eGgUWE8A7rXRhOZMWnRMo0RxGiNsUdnhQxBOLYy5HlwoYQuzMSvEpt1C21G85bRL/dJQ3wjAZtpi7C//UySkJa36juItDI8OD6djIy7q4dHRESG9x6rLzuKNRuGVHp0YGRqaSE/0DQ1DaKkFXvOUJLtxmiDVqj4J441eWVmyioKwh1CQ7zFCsm5oo6wZw9sZxaWzeKfT3d0IdQ/Lo8NQYfZBaEGjNSWyTawVbXOKOtSxJp24cxUtxwJUN/S8mLcyRVt3AkJBJ6Zjk6uOlbdt3EPkLB/nb1mYd3gHY51HaBGViouQRsOkZZmFOE96kEW380RNZ/FGE6OjaQjiwwIa6hsaRWl5GI36a1JniupLOp2y7XwglnlBt6+iPK9DvjJgc4llfYHqdFku8Pp10dbta/pyfkFKaAIaM8RlvBD/wiwGprRAFNFQsWg4OjY5FF+8tWxbhBZ4ktnGkwYdxrt72Ks1h9PDQ0MwNQLhfNS/rQwlNpEjsFGG2PiOKgsrRZhVved4wbljsERHXMxdrcIaNihBTBUELsbFBAFxsIoIgqDKgkDcO95V7/534dnjjYS+tDtIHAAHV4fSCOmJvVSmTuMNOcqlYSF96RJUlJe8xmX3xOqmquuCQnfbels6jjeSJ0ZGIEEZSQuXRiZY2EC+pDCfvYll/OXNWxx22lJUlzfpJN4xryk/NDE8kYaUECK4sBrB8zaJL4S+7KKYftAWW1n/IFfu/e4M3mh0xG3OD43IQ0PDgjwycmm4WiqCQjiKS1GO4Pb8ATjm35RaagfxTg8Npfv6RtKAexTS79GmjufdqBhogilWO4c3mhiRZTkNMcWtKNN168Y2jvfIRDvpesMI5N6gib6RmIyEmvR7zg7hQggTLPGEimwk+Pb8/bQQ6RzegtuWZ/2xEyMCqs2+7emM5VDqFNs73mMn5SdI8HCz/u/h4eG+Yb+Dl8d7lNlgtpzKxntscVDpQN7ykAcb3HsE6s2JtdfU2qpO5T3cV9bIJTSy2geb849CRGC+3KcnhKJYIubqhipH0Gp/3+6dBB3IGzG3hoZOOawM+a85OHHkGBavx6e0glXMh/N2EeL5EsrpN/NiTkSWYS1R0yrO6ZbD04MyXnLyEX0X/9pHJ/IW+iaGAPioez9EOSssi8cxA3MWNrFYiBPLdHARE5GgQqjH4cHZi3jxMdGWsLXIO5jnY3Bs8iYm0q4NjtuJvCHnHu4D754Yhdx7dGS4/l6bDMrq71fd5YHyOpM3qv7FFHlitO7TaO3qIOxY3vXlWJxJJEpEjLVCyEQ2XsKEhtw/itESPWO8bVId73FZWRYR1afc8R5trU3jD3Y475rxHjn/eI8t9O/Dp198RX42eLddLu933778jPDmHrPxHts4lLY3Ht7Fd54R3vcfPrn/3d0HK20f7/EZ4f1o5dHj2ZXvSu0d7/Hy5dPPSH3Zdj1j+Unb9Zx3a/Wcd2vVMbz3yXhKgux/8j+6T3mfSSoH94kUnw4mv2+3OTvRmf8HO/FzEswtBxAAAAAASUVORK5CYII=;" parent="chWlJP7nHv1LBfzG1qX2-421" vertex="1">
          <mxGeometry x="44.84" y="48.65951742627346" width="46.71313672922252" height="17.439571045576407" as="geometry" />
        </mxCell>
        <mxCell id="chWlJP7nHv1LBfzG1qX2-432" value="&lt;font color=&quot;#009900&quot; face=&quot;Comic Sans MS&quot;&gt;&lt;b&gt;Password.txt&lt;/b&gt;&lt;/font&gt;" style="rounded=1;whiteSpace=wrap;html=1;fillColor=none;strokeColor=none;" parent="chWlJP7nHv1LBfzG1qX2-398" vertex="1">
          <mxGeometry x="392" y="65" width="126" height="34" as="geometry" />
        </mxCell>
        <mxCell id="chWlJP7nHv1LBfzG1qX2-433" value="&lt;font color=&quot;#009900&quot; face=&quot;Comic Sans MS&quot;&gt;&lt;b&gt;Password.txt&lt;/b&gt;&lt;/font&gt;" style="rounded=1;whiteSpace=wrap;html=1;strokeColor=none;fillColor=none;" parent="chWlJP7nHv1LBfzG1qX2-398" vertex="1">
          <mxGeometry x="390" y="189" width="139" height="34" as="geometry" />
        </mxCell>
        <mxCell id="chWlJP7nHv1LBfzG1qX2-427" value="" style="shape=image;verticalLabelPosition=bottom;labelBackgroundColor=default;verticalAlign=top;aspect=fixed;imageAspect=0;image=https://encrypted-tbn0.gstatic.com/images?q=tbn:ANd9GcQQ7RoFZpsZrD9GbaSIjbdYPP1MOaI-9CF81g&amp;s;" parent="chWlJP7nHv1LBfzG1qX2-398" vertex="1">
          <mxGeometry x="495" y="72.68999999999997" width="50.43" height="33.56" as="geometry" />
        </mxCell>
        <mxCell id="chWlJP7nHv1LBfzG1qX2-437" style="rounded=0;orthogonalLoop=1;jettySize=auto;html=1;entryX=0.071;entryY=0.56;entryDx=0;entryDy=0;entryPerimeter=0;shape=link;dashed=1;fillColor=#dae8fc;strokeColor=#6c8ebf;flowAnimation=1;strokeWidth=2;" parent="chWlJP7nHv1LBfzG1qX2-398" source="chWlJP7nHv1LBfzG1qX2-422" target="chWlJP7nHv1LBfzG1qX2-419" edge="1">
          <mxGeometry relative="1" as="geometry" />
        </mxCell>
        <mxCell id="chWlJP7nHv1LBfzG1qX2-438" value="&lt;font color=&quot;#009900&quot; face=&quot;Comic Sans MS&quot;&gt;&lt;b&gt;Download Fake Password File&lt;br&gt;&lt;/b&gt;&lt;/font&gt;" style="rounded=1;whiteSpace=wrap;html=1;fillColor=#f5f5f5;strokeColor=#666666;fontColor=#333333;" parent="chWlJP7nHv1LBfzG1qX2-398" vertex="1">
          <mxGeometry x="256" y="227" width="188" height="34" as="geometry" />
        </mxCell>
      </root>
    </mxGraphModel>
  </diagram>
</mxfile>
